<?xml version="1.0" encoding="UTF-8" standalone="no"?>
<svg width="147px" height="50px" viewBox="0 0 147 50" version="1.1" xmlns="http://www.w3.org/2000/svg" xmlns:xlink="http://www.w3.org/1999/xlink">
    <!-- Generator: sketchtool 39.1 (31720) - http://www.bohemiancoding.com/sketch -->
    <title>E31B566C-08AA-4D5A-B9DB-BF4301E1E503</title>
    <desc>Created with sketchtool.</desc>
    <defs>
        <rect id="path-1" x="0" y="0" width="147" height="50" rx="5"></rect>
    </defs>
    <g id="Page-1" stroke="none" stroke-width="1" fill="none" fill-rule="evenodd">
        <g id="footer" transform="translate(-414.000000, -166.000000)">
            <g transform="translate(91.000000, 33.000000)" id="black_btn_apps">
                <g transform="translate(323.000000, 133.000000)">
                    <mask id="mask-2" fill="white">
                        <use xlink:href="#path-1"></use>
                    </mask>
                    <use id="Mask" fill="#000000" xlink:href="#path-1"></use>
                    <g id="Group-3" mask="url(#mask-2)" fill="#FFFFFF">
                        <g transform="translate(15.306020, 10.204082)">
                            <path d="M18.5215233,14.0653061 C18.4919103,10.7765306 21.2163082,9.17653061 21.3408871,9.10204082 C19.7979466,6.85408163 17.4064399,6.54693878 16.5660428,6.52244898 C14.5574631,6.31122449 12.6091305,7.72346939 11.5859496,7.72346939 C10.5423459,7.72346939 8.96672901,6.54285714 7.26857545,6.57755102 C5.08333875,6.61122449 3.03901919,7.8755102 1.91780896,9.83877551 C-0.396091201,13.8418367 1.32963311,19.7244898 3.5465251,22.9602041 C4.65548166,24.544898 5.9513066,26.3142857 7.64741789,26.2520408 C9.30676818,26.1836735 9.92659934,25.194898 11.9290522,25.194898 C13.9131246,25.194898 14.4951736,26.2520408 16.2249825,26.2122449 C18.0058483,26.1836735 19.1270585,24.6204082 20.1972118,23.0214286 C21.4787408,21.205102 21.9933947,19.4163265 22.0138174,19.3244898 C21.9719508,19.3102041 18.5552209,18.0071429 18.5215233,14.0653061" id="Fill-3"></path>
                            <path d="M15.2538796,4.39387755 C16.1463548,3.27857143 16.7569957,1.76122449 16.5874867,0.221428571 C15.2957463,0.278571429 13.680305,1.11428571 12.7500477,2.20510204 C11.9270099,3.16632653 11.1917901,4.74183673 11.3817219,6.22346939 C12.8327599,6.33163265 14.3226012,5.49183673 15.2538796,4.39387755" id="Fill-5"></path>
                            <path d="M38.5634114,20.3622449 L37.4146305,16.8163265 C37.293115,16.4540816 37.065401,15.6010204 36.7294464,14.2581633 L36.6886009,14.2581633 C36.5548317,14.8357143 36.3393715,15.6887755 36.0432413,16.8163265 L34.9148831,20.3622449 L38.5634114,20.3622449 Z M42.5356407,26.0244898 L40.2166349,26.0244898 L38.9463384,22.0357143 L34.5309349,22.0357143 L33.3208856,26.0244898 L31.0631481,26.0244898 L35.437706,12.444898 L38.1396389,12.444898 L42.5356407,26.0244898 Z" id="Fill-7"></path>
                            <path d="M51.567612,21.0877551 C51.567612,20.1346939 51.3531729,19.3489796 50.9222524,18.7306122 C50.4515075,18.0857143 49.8194227,17.7632653 49.0270191,17.7632653 C48.4899002,17.7632653 48.0017959,17.9428571 47.5657697,18.2969388 C47.1287224,18.6540816 46.8428035,19.1204082 46.7090344,19.6979592 C46.6416392,19.9673469 46.6079416,20.1877551 46.6079416,20.3612245 L46.6079416,21.9938776 C46.6079416,22.7061224 46.8264653,23.3071429 47.2635127,23.7979592 C47.70056,24.2887755 48.2683131,24.5336735 48.9667719,24.5336735 C49.7867462,24.5336735 50.4249579,24.2173469 50.8814069,23.5867347 C51.338877,22.955102 51.567612,22.122449 51.567612,21.0877551 M53.7855252,21.0081633 C53.7855252,22.6734694 53.335203,23.9897959 52.4345587,24.9561224 C51.6278592,25.8163265 50.6261222,26.2459184 49.4303689,26.2459184 C48.1396496,26.2459184 47.2124557,25.7826531 46.6477661,24.8561224 L46.6069205,24.8561224 L46.6069205,30.0142857 L44.4298529,30.0142857 L44.4298529,19.4561224 C44.4298529,18.4091837 44.4022822,17.3346939 44.349183,16.2326531 L46.2638179,16.2326531 L46.3853334,17.7846939 L46.426179,17.7846939 C47.1522085,16.6153061 48.2540171,16.0316327 49.7326259,16.0316327 C50.8885548,16.0316327 51.8535309,16.4877551 52.6255117,17.4010204 C53.3995348,18.3153061 53.7855252,19.5173469 53.7855252,21.0081633" id="Fill-9"></path>
                            <path d="M62.8379192,21.0877551 C62.8379192,20.1346939 62.622459,19.3489796 62.1915385,18.7306122 C61.7207936,18.0857143 61.090751,17.7632653 60.2973263,17.7632653 C59.7591862,17.7632653 59.2721031,17.9428571 58.8350558,18.2969388 C58.3980084,18.6540816 58.1131107,19.1204082 57.9793416,19.6979592 C57.9129676,19.9673469 57.8782488,20.1877551 57.8782488,20.3612245 L57.8782488,21.9938776 C57.8782488,22.7061224 58.0967725,23.3071429 58.5317776,23.7979592 C58.9688249,24.2877551 59.536578,24.5336735 60.2370791,24.5336735 C61.0570534,24.5336735 61.6952651,24.2173469 62.1517141,23.5867347 C62.6091842,22.955102 62.8379192,22.122449 62.8379192,21.0877551 M65.0558324,21.0081633 C65.0558324,22.6734694 64.6055102,23.9897959 63.7038448,24.9561224 C62.8981664,25.8163265 61.8964294,26.2459184 60.7006761,26.2459184 C59.4099568,26.2459184 58.4827629,25.7826531 57.9190944,24.8561224 L57.8782488,24.8561224 L57.8782488,30.0142857 L55.7011813,30.0142857 L55.7011813,19.4561224 C55.7011813,18.4091837 55.6736105,17.3346939 55.6205113,16.2326531 L57.5351463,16.2326531 L57.6566618,17.7846939 L57.6975073,17.7846939 C58.4225157,16.6153061 59.5243243,16.0316327 61.0039542,16.0316327 C62.158862,16.0316327 63.1238381,16.4877551 63.8978611,17.4010204 C64.6688208,18.3153061 65.0558324,19.5173469 65.0558324,21.0081633" id="Fill-11"></path>
                            <path d="M77.6566832,22.2163265 C77.6566832,23.3714286 77.2553757,24.3112245 76.4496973,25.0367347 C75.5643701,25.8295918 74.3318558,26.2255102 72.7480698,26.2255102 C71.2857992,26.2255102 70.1135321,25.9438776 69.2261626,25.3795918 L69.7306051,23.5663265 C70.6863908,24.1438776 71.7351002,24.4336735 72.8777544,24.4336735 C73.6977287,24.4336735 74.3359403,24.2479592 74.7944316,23.8785714 C75.2508806,23.5091837 75.4785945,23.0132653 75.4785945,22.394898 C75.4785945,21.8438776 75.290705,21.3795918 74.9139048,21.0030612 C74.5391469,20.6265306 73.9131889,20.2765306 73.0390943,19.9530612 C70.6598412,19.0663265 69.4712359,17.7673469 69.4712359,16.0591837 C69.4712359,14.9428571 69.8878604,14.027551 70.7221307,13.3153061 C71.5533375,12.6020408 72.6622941,12.2459184 74.0490004,12.2459184 C75.2855993,12.2459184 76.3128648,12.4612245 77.1328391,12.8908163 L76.5885722,14.6642857 C75.8227182,14.2479592 74.9567926,14.0397959 73.9877321,14.0397959 C73.2218781,14.0397959 72.6234908,14.2285714 72.1946126,14.6040816 C71.8321084,14.9397959 71.6503457,15.3489796 71.6503457,15.8336735 C71.6503457,16.3704082 71.8576369,16.8142857 72.2742614,17.1632653 C72.6367656,17.4857143 73.2954001,17.8346939 74.2511858,18.2112245 C75.4203896,18.6816327 76.2791672,19.2316327 76.8316032,19.8622449 C77.3819969,20.4908163 77.6566832,21.277551 77.6566832,22.2163265" id="Fill-13"></path>
                            <path d="M84.8546895,17.8653061 L82.4550137,17.8653061 L82.4550137,22.6193878 C82.4550137,23.8285714 82.8777651,24.4326531 83.7253102,24.4326531 C84.114364,24.4326531 84.4370438,24.3989796 84.6923285,24.3316327 L84.7525756,25.9836735 C84.3236974,26.1438776 83.7590077,26.2244898 83.0595278,26.2244898 C82.199729,26.2244898 81.5278198,25.9622449 81.0427789,25.4387755 C80.5597804,24.9142857 80.3167494,24.0346939 80.3167494,22.7989796 L80.3167494,17.8632653 L78.8871553,17.8632653 L78.8871553,16.2306122 L80.3167494,16.2306122 L80.3167494,14.4377551 L82.4550137,13.7928571 L82.4550137,16.2306122 L84.8546895,16.2306122 L84.8546895,17.8653061" id="Fill-15"></path>
                            <path d="M93.4230638,21.1183673 C93.4230638,20.2153061 93.2300686,19.4408163 92.8389725,18.794898 C92.3825236,18.0132653 91.730016,17.6234694 90.8845132,17.6234694 C90.0093974,17.6234694 89.3446361,18.0142857 88.8881871,18.794898 C88.497091,19.4418367 88.3040958,20.2285714 88.3040958,21.1591837 C88.3040958,22.0622449 88.497091,22.8367347 88.8881871,23.4816327 C89.3589321,24.2632653 90.0165453,24.6530612 90.8651116,24.6530612 C91.6963184,24.6530612 92.348826,24.255102 92.8195709,23.4612245 C93.2208784,22.8030612 93.4230638,22.0204082 93.4230638,21.1183673 M95.6818225,21.0479592 C95.6818225,22.5530612 95.250902,23.7887755 94.3911033,24.755102 C93.4894379,25.75 92.2926634,26.2459184 90.8007798,26.2459184 C89.3630166,26.2459184 88.2183202,25.7693878 87.3646483,24.8163265 C86.5109764,23.8632653 86.0841404,22.6602041 86.0841404,21.2102041 C86.0841404,19.6928571 86.52323,18.45 87.4044727,17.4836735 C88.2836731,16.5163265 89.4702362,16.0326531 90.9621197,16.0326531 C92.3998829,16.0326531 93.556833,16.5091837 94.4299066,17.4632653 C95.265198,18.3887755 95.6818225,19.5836735 95.6818225,21.0479592" id="Fill-17"></path>
                            <path d="M102.758313,18.1459184 C102.542853,18.1061224 102.313097,18.0857143 102.072108,18.0857143 C101.306254,18.0857143 100.713994,18.3744898 100.297369,18.9530612 C99.934865,19.4632653 99.7531023,20.1081633 99.7531023,20.8867347 L99.7531023,26.0244898 L97.5770558,26.0244898 L97.5974786,19.3163265 C97.5974786,18.1877551 97.5699079,17.1602041 97.5157875,16.2336735 L99.412042,16.2336735 L99.4916908,18.1071429 L99.551938,18.1071429 C99.7816942,17.4632653 100.144198,16.944898 100.640472,16.5561224 C101.125513,16.2061224 101.649357,16.0316327 102.214046,16.0316327 C102.415211,16.0316327 102.596973,16.0459184 102.758313,16.0714286 L102.758313,18.1459184" id="Fill-19"></path>
                            <path d="M110.418895,20.1010204 C110.433191,19.4561224 110.291253,18.8989796 109.996144,18.4285714 C109.619344,17.8234694 109.040358,17.5214286 108.261229,17.5214286 C107.549496,17.5214286 106.97051,17.8163265 106.528357,18.4081633 C106.165853,18.8785714 105.950393,19.4428571 105.884019,20.1 L110.418895,20.1 L110.418895,20.1010204 Z M112.49487,20.6653061 C112.49487,21.055102 112.469342,21.3836735 112.415221,21.6520408 L105.884019,21.6520408 C105.909547,22.6193878 106.225079,23.3591837 106.831635,23.8693878 C107.382029,24.3255102 108.093763,24.5540816 108.967857,24.5540816 C109.934876,24.5540816 110.817139,24.4 111.610564,24.0908163 L111.951625,25.6010204 C111.024431,26.005102 109.92977,26.2061224 108.666622,26.2061224 C107.147167,26.2061224 105.954477,25.7591837 105.086509,24.8663265 C104.220584,23.9734694 103.7866,22.7744898 103.7866,21.2704082 C103.7866,19.7938776 104.18995,18.5642857 104.99767,17.5836735 C105.843173,16.5367347 106.985827,16.0132653 108.423591,16.0132653 C109.835825,16.0132653 110.904957,16.5367347 111.630987,17.5836735 C112.205888,18.4153061 112.49487,19.4438776 112.49487,20.6653061 L112.49487,20.6653061 Z" id="Fill-21"></path>
                            <path d="M31.8453403,1.74081633 C32.0771388,1.60204082 32.3385503,1.48571429 32.6326382,1.38979592 C32.925705,1.29387755 33.2708498,1.24591837 33.6680728,1.24591837 C34.3083267,1.24591837 34.8127692,1.39795918 35.1824214,1.70102041 C35.5520736,2.00408163 35.7368997,2.41326531 35.7368997,2.92857143 C35.7368997,3.3377551 35.6133419,3.68061224 35.3662263,3.95816327 C35.1191108,4.23571429 34.8025578,4.42040816 34.4196308,4.5122449 L34.4196308,4.54183673 C34.6310065,4.5755102 34.8311497,4.63265306 35.0190392,4.71530612 C35.2079498,4.79795918 35.3733743,4.90816327 35.5142914,5.04693878 C35.6562297,5.18571429 35.768555,5.34693878 35.8512672,5.53265306 C35.9329583,5.71734694 35.974825,5.92142857 35.974825,6.14693878 C35.974825,6.51632653 35.9002818,6.82653061 35.7511956,7.07755102 C35.6021094,7.32857143 35.408093,7.53265306 35.1671043,7.69183673 C34.9271367,7.85 34.6575561,7.96428571 34.3604048,8.03265306 C34.0632534,8.10102041 33.7661021,8.13673469 33.4689507,8.13673469 C33.1513766,8.13673469 32.8378871,8.10306122 32.5274609,8.0377551 C32.2170348,7.97244898 31.9300948,7.86326531 31.6656199,7.71122449 L31.9331582,6.88979592 C32.1047095,6.9755102 32.3262966,7.05816327 32.5968983,7.1377551 C32.8675001,7.21734694 33.1411652,7.25612245 33.4189149,7.25612245 C33.8743428,7.25612245 34.2266356,7.15408163 34.4737512,6.95 C34.7208667,6.74489796 34.8454456,6.47142857 34.8454456,6.12857143 C34.8454456,5.89693878 34.7954098,5.70816327 34.6963594,5.55918367 C34.5962878,5.41020408 34.4676243,5.29387755 34.3093478,5.20714286 C34.1510713,5.12142857 33.9744144,5.0622449 33.7793769,5.02959184 C33.5843394,4.99693878 33.3913442,4.97959184 33.2003913,4.97959184 L32.7541537,4.97959184 L32.7541537,4.16632653 L33.2003913,4.16632653 C33.404619,4.16632653 33.5945508,4.14081633 33.7701866,4.08673469 C33.9448013,4.03469388 34.096951,3.96020408 34.2256145,3.86428571 C34.3542779,3.76836735 34.4553707,3.65408163 34.5278715,3.52244898 C34.5993512,3.39081633 34.6361122,3.24183673 34.6361122,3.07653061 C34.6361122,2.77959184 34.5299138,2.54693878 34.3185381,2.37857143 C34.1071624,2.21020408 33.8232858,2.1255102 33.4669085,2.1255102 C33.2228563,2.1255102 32.977783,2.16530612 32.7337309,2.24387755 C32.4896788,2.32346939 32.2711551,2.40918367 32.079181,2.50102041 L31.8453403,1.74081633 Z" id="Fill-23"></path>
                            <path d="M40.2043812,5.63163265 C39.6070151,5.63163265 39.1617987,5.70714286 38.869753,5.85918367 C38.5777074,6.01122449 38.4316845,6.25918367 38.4316845,6.60204082 C38.4316845,6.85306122 38.5001008,7.04081633 38.6379545,7.16632653 C38.7758083,7.29183673 38.950423,7.35408163 39.1607775,7.35408163 C39.2986312,7.35408163 39.429337,7.32959184 39.554937,7.27959184 C39.679516,7.23061224 39.7887778,7.1622449 39.8837437,7.07653061 C39.9797307,6.99081633 40.0563161,6.88673469 40.1165633,6.76428571 C40.1757893,6.64183673 40.2043812,6.5122449 40.2043812,6.37346939 L40.2043812,5.63163265 Z M40.3524463,8.02653061 L40.2738186,7.47244898 L40.2442056,7.47244898 C39.9215258,7.91428571 39.4528232,8.13571429 38.8380977,8.13571429 C38.619574,8.13571429 38.4224943,8.09897959 38.243795,8.02653061 C38.0650958,7.95408163 37.9098827,7.85510204 37.7781558,7.72959184 C37.6454078,7.60408163 37.5443151,7.45612245 37.4707931,7.28367347 C37.3982922,7.1122449 37.3625524,6.92346939 37.3625524,6.71938776 C37.3625524,6.11938776 37.6066045,5.66836735 38.0957299,5.36836735 C38.5848553,5.06836735 39.2771873,4.91836735 40.1757893,4.91836735 L40.1757893,4.82959184 C40.1757893,4.19591837 39.8428981,3.87959184 39.1771157,3.87959184 C38.7022863,3.87959184 38.2836194,3.99897959 37.9221364,4.23571429 L37.7046338,3.53367347 C38.1467869,3.25714286 38.6971806,3.11836735 39.355815,3.11836735 C40.614879,3.11836735 41.2449215,3.78163265 41.2449215,5.10816327 L41.2449215,6.87959184 C41.2449215,7.3744898 41.2684077,7.75714286 41.3143589,8.02755102 L40.3524463,8.02755102 L40.3524463,8.02653061 Z" id="Fill-25"></path>
                            <polygon id="Fill-27" points="46.4057562 3.21632653 46.4057562 4.09693878 44.4043245 4.09693878 44.4043245 8.02653061 43.3351923 8.02653061 43.3351923 3.21632653"></polygon>
                            <path d="M51.4379274,5.60204082 C51.4379274,5.36428571 51.4093355,5.14489796 51.3531729,4.94387755 C51.2970103,4.74285714 51.2142981,4.57142857 51.1060574,4.42959184 C50.9978167,4.2877551 50.8650686,4.1755102 50.7098556,4.09285714 C50.5546425,4.01020408 50.3810489,3.96938776 50.1890749,3.96938776 C50.0379463,3.96938776 49.8888601,4.00306122 49.7428373,4.06836735 C49.5968145,4.13367347 49.4701933,4.22346939 49.3619526,4.33571429 C49.2526907,4.44795918 49.1658939,4.58367347 49.0995199,4.74183673 C49.0331459,4.9 48.9994483,5.06836735 48.9994483,5.24693878 L48.9994483,6.04897959 C48.9994483,6.22653061 49.0270191,6.39183673 49.0842029,6.54387755 C49.1403655,6.69591837 49.2189932,6.82755102 49.321107,6.93979592 C49.4232209,7.05204082 49.5457575,7.13979592 49.6876958,7.20204082 C49.8296341,7.26530612 49.9858683,7.29591837 50.1574196,7.29591837 C50.5607693,7.29591837 50.8742589,7.14285714 51.0989094,6.83571429 C51.3235599,6.52857143 51.4379274,6.11632653 51.4379274,5.60204082 M52.5264612,5.5622449 C52.5264612,5.94489796 52.473362,6.29489796 52.3681847,6.61122449 C52.2619863,6.92857143 52.1159635,7.19897959 51.9270528,7.42244898 C51.7391633,7.64693878 51.5145128,7.82244898 51.2541225,7.94693878 C50.992711,8.07244898 50.7047499,8.13571429 50.3871758,8.13571429 C49.7530487,8.13571429 49.2976208,7.90816327 49.0198711,7.45306122 L48.9994483,7.45306122 L48.9994483,9.98673469 L47.9292951,9.98673469 L47.9292951,4.8 C47.9292951,4.54285714 47.9262316,4.28367347 47.9190837,4.02244898 C47.9129568,3.7622449 47.9027454,3.49285714 47.8904918,3.21530612 L48.8309605,3.21530612 L48.8912077,3.97755102 L48.9116304,3.97755102 C49.2680078,3.40408163 49.8092113,3.11632653 50.536262,3.11632653 C50.8191174,3.11632653 51.0825712,3.1755102 51.3235599,3.29387755 C51.5645486,3.41326531 51.773882,3.57959184 51.9525813,3.79387755 C52.1312806,4.00816327 52.2711766,4.26530612 52.3732904,4.56632653 C52.4754043,4.86734694 52.5264612,5.19897959 52.5264612,5.5622449" id="Fill-29"></path>
                            <path d="M58.2734295,3.21632653 L57.05419,6.55204082 C56.7641866,7.34387755 56.4813312,7.99183673 56.207666,8.49693878 C55.9329797,9.00204082 55.6715682,9.36938776 55.4203681,9.60102041 C55.0507159,9.93061224 54.6575776,10.1326531 54.240953,10.2040816 L53.9836261,9.30408163 C54.2603546,9.23163265 54.5248295,9.08979592 54.7760296,8.87857143 C55.0262086,8.66734694 55.2273729,8.40408163 55.3805437,8.08673469 C55.4336429,7.98163265 55.4591714,7.90918367 55.4591714,7.86938776 C55.4591714,7.82959184 55.4387486,7.75408163 55.3999454,7.64183673 L53.6558406,3.21734694 L54.8342346,3.21734694 L55.7461114,5.9 C55.7930837,6.0255102 55.839035,6.16734694 55.8849862,6.3255102 C55.9319586,6.48367347 55.9809732,6.65918367 56.0340725,6.85 L56.0544952,6.85 C56.0871717,6.74387755 56.1239327,6.61122449 56.1627359,6.44897959 C56.2025603,6.2877551 56.2556595,6.10102041 56.3210124,5.88979592 L57.1338388,3.21734694 L58.2734295,3.21734694 L58.2734295,3.21632653 Z" id="Fill-31"></path>
                            <path d="M60.125775,5.21530612 L60.6200061,5.21530612 C60.9825103,5.21530612 61.2643446,5.15 61.4614243,5.01734694 C61.6585041,4.88469388 61.7585757,4.72346939 61.7585757,4.53163265 C61.7585757,4.33367347 61.6748423,4.1755102 61.5053333,4.05714286 C61.3378666,3.93877551 61.1040258,3.87857143 60.8068745,3.87857143 C60.6149004,3.87857143 60.4219052,3.91020408 60.22891,3.97244898 C60.0338725,4.03571429 59.8541521,4.11326531 59.6887277,4.20510204 L59.4119991,3.51326531 C59.6887277,3.3622449 59.9644351,3.25816327 60.2401425,3.20204082 C60.5138077,3.14591837 60.788494,3.11734694 61.0662437,3.11734694 C61.2857885,3.11734694 61.5053333,3.13877551 61.7258992,3.18163265 C61.9454441,3.2244898 62.1425238,3.29693878 62.3140751,3.39897959 C62.4856264,3.50102041 62.6275647,3.63469388 62.7347842,3.8 C62.8440461,3.96530612 62.8981664,4.16938776 62.8981664,4.41428571 C62.8981664,4.56632653 62.8685534,4.7 62.8083062,4.81530612 C62.7501013,4.93061224 62.6704525,5.03265306 62.571402,5.12142857 C62.4733727,5.21020408 62.3620686,5.28367347 62.2405531,5.33877551 C62.1190376,5.39489796 61.9934376,5.43673469 61.8698798,5.46326531 L61.8698798,5.49285714 C62.0271351,5.51326531 62.1813271,5.55306122 62.3304133,5.6122449 C62.4784784,5.67142857 62.6112265,5.74897959 62.7317208,5.84489796 C62.8491518,5.94081633 62.9451388,6.05612245 63.0186608,6.19081633 C63.0901405,6.32653061 63.1258803,6.47959184 63.1258803,6.65102041 C63.1258803,6.93469388 63.0584852,7.17244898 62.9185892,7.36326531 C62.7807355,7.55510204 62.6030573,7.70612245 62.3875971,7.81836735 C62.1741791,7.93061224 61.9372749,8.01122449 61.679948,8.06122449 C61.4226211,8.11020408 61.171421,8.13571429 60.92839,8.13571429 C60.6312386,8.13571429 60.3361296,8.10408163 60.0471473,8.04183673 C59.7561228,7.97857143 59.4947113,7.88163265 59.2629128,7.75 L59.5416837,7.04693878 C59.713235,7.13979592 59.9082725,7.21734694 60.1298596,7.27959184 C60.3514466,7.34183673 60.5771183,7.37346939 60.8078956,7.37346939 C61.1703998,7.37346939 61.4501918,7.30306122 61.6452293,7.16122449 C61.8382245,7.01938776 61.9362538,6.84285714 61.9362538,6.63163265 C61.9362538,6.49285714 61.9045985,6.37653061 61.8382245,6.28061224 C61.7718505,6.18469388 61.6789269,6.10714286 61.5614959,6.04795918 C61.4420227,5.98877551 61.304169,5.94693878 61.1448714,5.9244898 C60.987616,5.90102041 60.8140224,5.88979592 60.6302175,5.88979592 L60.125775,5.88979592 L60.125775,5.21530612 Z" id="Fill-33"></path>
                            <path d="M65.8400668,3.21632653 L65.8400668,4.91836735 C65.8400668,5.30816327 65.83394,5.65816327 65.8196441,5.96734694 C65.8053481,6.27755102 65.790031,6.60408163 65.7696083,6.94693878 L65.790031,6.96632653 C65.9156311,6.71530612 66.0391889,6.47040816 66.1607044,6.22857143 C66.2842621,5.9877551 66.4078199,5.74183673 66.53342,5.49081633 L67.7220254,3.21428571 L69.1077105,3.21428571 L69.1077105,8.0244898 L68.0967832,8.0244898 L68.0967832,6.32244898 C68.0967832,5.96632653 68.1069946,5.61020408 68.1223117,5.25408163 C68.1386499,4.89693878 68.1560093,4.5377551 68.1764321,4.1744898 L68.1263963,4.1744898 C68.0150921,4.47142857 67.9027669,4.72857143 67.7894205,4.94693878 C67.6781164,5.16428571 67.5657911,5.38877551 67.454487,5.62040816 C67.2492382,6.01632653 67.0460316,6.4122449 66.8438461,6.80816327 C66.6426818,7.20408163 66.4292638,7.61020408 66.2056345,8.0255102 L64.8199493,8.0255102 L64.8199493,3.21632653 L65.8400668,3.21632653 Z" id="Fill-35"></path>
                            <polygon id="Fill-37" points="74.7546072 3.21632653 74.7546072 4.09693878 73.2892732 4.09693878 73.2892732 8.02653061 72.2375004 8.02653061 72.2375004 4.09693878 70.7813567 4.09693878 70.7813567 3.21632653"></polygon>
                            <path d="M79.1904335,5.11734694 C79.1904335,4.74081633 79.1005733,4.43571429 78.9188106,4.20204082 C78.7370479,3.96836735 78.4746153,3.85 78.1315127,3.85 C77.8200654,3.85 77.5576328,3.96836735 77.3401302,4.20612245 C77.1226277,4.44387755 76.9970276,4.74693878 76.9633301,5.11734694 L79.1904335,5.11734694 Z M80.2115721,5.39387755 C80.2115721,5.48571429 80.2074875,5.57346939 80.2013607,5.65612245 C80.1952339,5.73877551 80.1850225,5.81326531 80.1717477,5.87857143 L76.9623089,5.87857143 C76.9766049,6.33367347 77.1195643,6.68571429 77.3932294,6.93265306 C77.6668946,7.17959184 78.0293988,7.30408163 78.4776787,7.30408163 C78.9463813,7.30408163 79.3793441,7.22857143 79.7755459,7.07653061 L79.9430126,7.81938776 C79.4865637,8.01734694 78.9494447,8.11632653 78.3275713,8.11632653 C77.9528134,8.11632653 77.6158377,8.05816327 77.3186863,7.94285714 C77.021535,7.82755102 76.7703349,7.66428571 76.565086,7.45306122 C76.3618794,7.24183673 76.2036029,6.9877551 76.0943411,6.69081633 C75.9871215,6.39387755 75.9330012,6.06122449 75.9330012,5.69183673 C75.9330012,5.32244898 75.9871215,4.98061224 76.0943411,4.66734694 C76.2036029,4.35408163 76.3577949,4.08163265 76.5548746,3.85102041 C76.7539967,3.61938776 76.9939642,3.43877551 77.2727351,3.30612245 C77.5535482,3.1744898 77.8670378,3.10816327 78.2101404,3.10816327 C78.5134185,3.10816327 78.7881048,3.1622449 79.0382838,3.27142857 C79.2853993,3.37959184 79.496775,3.53469388 79.6703686,3.73673469 C79.8460045,3.9377551 79.9797736,4.17959184 80.0716761,4.45918367 C80.1656209,4.73877551 80.2115721,5.05102041 80.2115721,5.39387755 L80.2115721,5.39387755 Z" id="Fill-39"></path>
                            <path d="M85.5511061,7.30408163 C85.6828329,7.31734694 85.7941371,7.32653061 85.881955,7.33367347 C85.9718152,7.34081633 86.0749502,7.34387755 86.1954445,7.34387755 C86.3414674,7.34387755 86.4885113,7.33469388 86.640661,7.31428571 C86.7917895,7.29489796 86.9316855,7.25714286 87.0572856,7.20102041 C87.1828856,7.14591837 87.2829572,7.07040816 87.3585215,6.9744898 C87.4340857,6.87959184 87.4739101,6.75306122 87.4739101,6.59591837 C87.4739101,6.32040816 87.3503523,6.13061224 87.1073213,6.0255102 C86.8622481,5.92040816 86.5334414,5.86836735 86.1157957,5.86836735 L85.5511061,5.86836735 L85.5511061,7.30408163 L85.5511061,7.30408163 Z M85.5511061,5.17653061 L86.095373,5.17653061 C86.2607974,5.17653061 86.4180528,5.16530612 86.5661179,5.14183673 C86.7152041,5.11938776 86.8448887,5.08265306 86.957214,5.03367347 C87.0705604,4.98367347 87.156336,4.91836735 87.2206677,4.83571429 C87.2829572,4.75306122 87.3146125,4.65306122 87.3146125,4.53367347 C87.3146125,4.31632653 87.2247523,4.15612245 87.0409473,4.05408163 C86.8591847,3.95204082 86.574287,3.90102041 86.1852332,3.90102041 C86.073929,3.90102041 85.9758997,3.90408163 85.8921664,3.91122449 C85.8104753,3.91734694 85.6971289,3.92755102 85.5511061,3.94081633 L85.5511061,5.17653061 L85.5511061,5.17653061 Z M84.5217983,3.25612245 C84.7137724,3.22346939 84.9568034,3.19693878 85.2539547,3.17653061 C85.5511061,3.15612245 85.8543842,3.14693878 86.1658315,3.14693878 C86.3629113,3.14693878 86.5865406,3.15918367 86.8336562,3.18163265 C87.0807717,3.20408163 87.318697,3.25714286 87.5413053,3.33979592 C87.7669769,3.42244898 87.9538453,3.54591837 88.1059949,3.71122449 C88.2581446,3.87653061 88.3357511,4.1 88.3357511,4.38367347 C88.3357511,4.52959184 88.3081804,4.66020408 88.2561023,4.7744898 C88.201982,4.88979592 88.1325445,4.99081633 88.0426843,5.07653061 C87.9528241,5.1622449 87.8507103,5.23367347 87.7353216,5.28877551 C87.6199329,5.34489796 87.5004597,5.38673469 87.3738385,5.4122449 L87.3840499,5.44183673 C87.7332793,5.50102041 88.018177,5.62653061 88.2356795,5.81836735 C88.4531821,6.01020408 88.5624439,6.27346939 88.5624439,6.61020408 C88.5624439,6.94693878 88.4684992,7.21428571 88.2857153,7.4122449 C88.0998681,7.61020408 87.8731753,7.75918367 87.6015524,7.85816327 C87.3299296,7.95714286 87.0450319,8.02040816 86.743796,8.04693878 C86.4446024,8.07244898 86.1750218,8.08673469 85.9381176,8.08673469 C85.6726216,8.08673469 85.4132523,8.08061224 85.16001,8.06632653 C84.9047253,8.05306122 84.6933496,8.03979592 84.5217983,8.02653061 L84.5217983,3.25612245 Z" id="Fill-41"></path>
                        </g>
                    </g>
                </g>
            </g>
        </g>
    </g>
</svg>