<svg width="35" height="35" viewBox="0 0 35 35" fill="none" xmlns="http://www.w3.org/2000/svg">
<circle cx="17.5" cy="17.5" r="17.5" fill="#CC2036"/>
<path d="M21.6611 8.00354L19.5024 8C17.0772 8 15.5099 9.64211 15.5099 12.1837V14.1127H13.3394C13.1519 14.1127 13 14.268 13 14.4595V17.2544C13 17.4459 13.1521 17.601 13.3394 17.601H15.5099V24.6534C15.5099 24.8449 15.6618 25 15.8493 25H18.6812C18.8687 25 19.0206 24.8447 19.0206 24.6534V17.601H21.5584C21.7459 17.601 21.8978 17.4459 21.8978 17.2544L21.8989 14.4595C21.8989 14.3675 21.863 14.2795 21.7995 14.2144C21.7359 14.1493 21.6493 14.1127 21.5593 14.1127H19.0206V12.4775C19.0206 11.6915 19.204 11.2925 20.2065 11.2925L21.6607 11.292C21.8481 11.292 22 11.1367 22 10.9454V8.35018C22 8.15899 21.8483 8.00389 21.6611 8.00354Z" fill="white"/>
</svg>
