<?xml version="1.0" encoding="UTF-8" standalone="no"?>
<svg width="148px" height="50px" viewBox="0 0 148 50" version="1.1" xmlns="http://www.w3.org/2000/svg" xmlns:xlink="http://www.w3.org/1999/xlink">
    <!-- Generator: sketchtool 39.1 (31720) - http://www.bohemiancoding.com/sketch -->
    <title>F9AD286B-7C9A-49F7-9BEF-971430EE1B28</title>
    <desc>Created with sketchtool.</desc>
    <defs>
        <rect id="path-1" x="0" y="0" width="147" height="50" rx="5"></rect>
        <linearGradient x1="3.16890627%" y1="111.351559%" x2="2.42535058%" y2="3.98227151%" id="linearGradient-3">
            <stop stop-color="#00E3FF" offset="0%"></stop>
            <stop stop-color="#00D2FF" offset="46.3966837%"></stop>
            <stop stop-color="#00A1FF" offset="100%"></stop>
        </linearGradient>
        <linearGradient x1="0%" y1="-8.31449079%" x2="100%" y2="50%" id="linearGradient-4">
            <stop stop-color="#FF9C00" offset="0%"></stop>
            <stop stop-color="#FF9F00" offset="19.4812975%"></stop>
            <stop stop-color="#FFE000" offset="100%"></stop>
        </linearGradient>
        <linearGradient x1="2.10818341%" y1="96.7394962%" x2="90.062309%" y2="23.1151165%" id="linearGradient-5">
            <stop stop-color="#C31162" offset="0%"></stop>
            <stop stop-color="#FF3A44" offset="100%"></stop>
        </linearGradient>
        <linearGradient x1="65.4390165%" y1="85.3771972%" x2="2.81927261%" y2="-21.8749696%" id="linearGradient-6">
            <stop stop-color="#00F076" offset="0%"></stop>
            <stop stop-color="#15CF74" offset="37.541544%"></stop>
            <stop stop-color="#32A071" offset="100%"></stop>
        </linearGradient>
    </defs>
    <g id="Page-1" stroke="none" stroke-width="1" fill="none" fill-rule="evenodd">
        <g id="footer" transform="translate(-572.000000, -166.000000)">
            <g transform="translate(91.000000, 33.000000)" id="black_btn_googleplay">
                <g transform="translate(481.162211, 133.000000)">
                    <mask id="mask-2" fill="white">
                        <use xlink:href="#path-1"></use>
                    </mask>
                    <use id="Mask" fill="#000000" xlink:href="#path-1"></use>
                    <path d="M115.434644,34.6938776 L117.340088,34.6938776 L117.340088,21.9377551 L115.434644,21.9377551 L115.434644,34.6938776 Z M132.596921,26.5326531 L130.412705,32.0632653 L130.347352,32.0632653 L128.080425,26.5326531 L126.027936,26.5326531 L129.427306,34.2622449 L127.489185,38.5622449 L129.476321,38.5622449 L134.715783,26.5326531 L132.596921,26.5326531 Z M121.790211,33.244898 C121.166295,33.244898 120.296285,32.9336735 120.296285,32.1622449 C120.296285,31.177551 121.379713,30.8 122.316097,30.8 C123.153431,30.8 123.54759,30.9806122 124.057138,31.2265306 C123.909073,32.4081633 122.890998,33.244898 121.790211,33.244898 L121.790211,33.244898 Z M122.020988,26.2540816 C120.64143,26.2540816 119.211835,26.8612245 118.620596,28.2071429 L120.312623,28.9122449 C120.674106,28.2071429 121.347036,27.9765306 122.053664,27.9765306 C123.039063,27.9765306 124.0408,28.5673469 124.057138,29.6183673 L124.057138,29.7489796 C123.711993,29.5520408 122.97371,29.2571429 122.070003,29.2571429 C120.24727,29.2571429 118.39084,30.2581633 118.39084,32.1285714 C118.39084,33.8357143 119.885787,34.9357143 121.560454,34.9357143 C122.841983,34.9357143 123.54759,34.3612245 123.991785,33.6877551 L124.057138,33.6877551 L124.057138,34.672449 L125.896209,34.672449 L125.896209,29.7826531 C125.896209,27.5173469 124.205203,26.2540816 122.020988,26.2540816 L122.020988,26.2540816 Z M110.245217,28.0857143 L107.535115,28.0857143 L107.535115,23.7132653 L110.245217,23.7132653 C111.669705,23.7132653 112.478447,24.8918367 112.478447,25.8989796 C112.478447,26.8877551 111.669705,28.0857143 110.245217,28.0857143 L110.245217,28.0857143 Z M110.196202,21.9377551 L105.630692,21.9377551 L105.630692,34.6938776 L107.535115,34.6938776 L107.535115,29.8612245 L110.196202,29.8612245 C112.307917,29.8612245 114.383892,28.3326531 114.383892,25.8989796 C114.383892,23.4653061 112.307917,21.9377551 110.196202,21.9377551 L110.196202,21.9377551 Z M85.2998212,33.2479592 C83.9835735,33.2479592 82.8817649,32.1459184 82.8817649,30.6336735 C82.8817649,29.105102 83.9835735,27.9867347 85.2998212,27.9867347 C86.5997307,27.9867347 87.618827,29.105102 87.618827,30.6336735 C87.618827,32.1459184 86.5997307,33.2479592 85.2998212,33.2479592 L85.2998212,33.2479592 Z M87.4871001,27.2469388 L87.4217473,27.2469388 C86.9938902,26.7377551 86.1718736,26.277551 85.1354178,26.277551 C82.9634559,26.277551 80.9732567,28.1836735 80.9732567,30.6336735 C80.9732567,33.0663265 82.9634559,34.9571429 85.1354178,34.9571429 C86.1718736,34.9571429 86.9938902,34.4969388 87.4217473,33.9704082 L87.4871001,33.9704082 L87.4871001,34.5959184 C87.4871001,36.2561224 86.5997307,37.1438776 85.1680943,37.1438776 C83.9999117,37.1438776 83.2759244,36.305102 82.9797942,35.5979592 L81.3184016,36.2887755 C81.7952733,37.4397959 83.0625064,38.8530612 85.1680943,38.8530612 C87.405409,38.8530612 89.2975789,37.5377551 89.2975789,34.3326531 L89.2975789,26.5397959 L87.4871001,26.5397959 L87.4871001,27.2469388 Z M90.6128055,34.6938776 L92.5213136,34.6938776 L92.5213136,21.9367347 L90.6128055,21.9367347 L90.6128055,34.6938776 Z M95.3345506,30.4857143 C95.2855359,28.8091837 96.6344601,27.9540816 97.6045418,27.9540816 C98.3622267,27.9540816 99.0035017,28.3326531 99.2169197,28.8744898 L95.3345506,30.4857143 Z M101.257155,29.0387755 C100.894651,28.0693878 99.7928419,26.277551 97.5391889,26.277551 C95.3018742,26.277551 93.4434018,28.0357143 93.4434018,30.6173469 C93.4434018,33.05 95.2855359,34.9571429 97.7526069,34.9571429 C99.7438273,34.9571429 100.894651,33.7408163 101.372543,33.0336735 L99.8918924,32.0469388 C99.3976613,32.7704082 98.7237098,33.2479592 97.7526069,33.2479592 C96.7825252,33.2479592 96.0912143,32.8040816 95.647019,31.9326531 L101.454234,29.5326531 L101.257155,29.0387755 Z M54.9914051,27.6091837 L54.9914051,29.45 L59.3996606,29.45 C59.2679337,30.4857143 58.9227889,31.2418367 58.3969025,31.7683673 C57.7546063,32.4091837 56.750827,33.1163265 54.9914051,33.1163265 C52.2761975,33.1163265 50.1542714,30.9295918 50.1542714,28.2173469 C50.1542714,25.5040816 52.2761975,23.3183673 54.9914051,23.3183673 C56.4557179,23.3183673 57.5248501,23.8938776 58.3141903,24.6336735 L59.6140997,23.3346939 C58.51127,22.2826531 57.0479783,21.4765306 54.9914051,21.4765306 C51.2734393,21.4765306 48.1477339,24.5020408 48.1477339,28.2173469 C48.1477339,31.9326531 51.2734393,34.9571429 54.9914051,34.9571429 C56.9979425,34.9571429 58.51127,34.3 59.6957908,33.0663265 C60.9129881,31.85 61.2918305,30.1408163 61.2918305,28.7591837 C61.2918305,28.3326531 61.2591541,27.9377551 61.1927801,27.6091837 L54.9914051,27.6091837 Z M66.303579,33.2479592 C64.9883524,33.2479592 63.8528463,32.1622449 63.8528463,30.6173469 C63.8528463,29.055102 64.9883524,27.9867347 66.303579,27.9867347 C67.6198267,27.9867347 68.7553329,29.055102 68.7553329,30.6173469 C68.7553329,32.1622449 67.6198267,33.2479592 66.303579,33.2479592 L66.303579,33.2479592 Z M66.303579,26.277551 C63.9018609,26.277551 61.9443381,28.1020408 61.9443381,30.6173469 C61.9443381,33.1163265 63.9018609,34.9571429 66.303579,34.9571429 C68.7052971,34.9571429 70.663841,33.1163265 70.663841,30.6173469 C70.663841,28.1020408 68.7052971,26.277551 66.303579,26.277551 L66.303579,26.277551 Z M75.8144643,33.2479592 C74.4982166,33.2479592 73.3627104,32.1622449 73.3627104,30.6173469 C73.3627104,29.055102 74.4982166,27.9867347 75.8144643,27.9867347 C77.130712,27.9867347 78.2651971,29.055102 78.2651971,30.6173469 C78.2651971,32.1622449 77.130712,33.2479592 75.8144643,33.2479592 L75.8144643,33.2479592 Z M75.8144643,26.277551 C73.4127462,26.277551 71.4552234,28.1020408 71.4552234,30.6173469 C71.4552234,33.1163265 73.4127462,34.9571429 75.8144643,34.9571429 C78.2161824,34.9571429 80.1737052,33.1163265 80.1737052,30.6173469 C80.1737052,28.1020408 78.2161824,26.277551 75.8144643,26.277551 L75.8144643,26.277551 Z" id="Fill-45" fill="#FFFFFF" mask="url(#mask-2)"></path>
                    <path d="M16.6421674,11.7734694 C16.345016,12.0877551 16.1693802,12.5755102 16.1693802,13.2071429 L16.1693802,35.7744898 C16.1693802,36.4071429 16.345016,36.8938776 16.6421674,37.2081633 L16.7177316,37.2816327 L29.3675971,24.6397959 L29.3675971,24.4908163 L29.3675971,24.3418367 L16.7177316,11.7 L16.6421674,11.7734694 Z" id="Fill-48" fill="url(#linearGradient-3)" mask="url(#mask-2)"></path>
                    <path d="M29.5558627,24.3418367 L29.5558627,24.4908163 L29.5558627,24.6397959 L33.7731653,28.8561224 L33.8691523,28.8020408 L38.8655837,25.9653061 C40.2921144,25.1540816 40.2921144,23.827551 38.8655837,23.0173469 L38.8655837,23.0173469 L33.8691523,20.1806122 L33.7741864,20.1265306 L29.5558627,24.3418367 Z" id="Fill-50" fill="url(#linearGradient-4)" mask="url(#mask-2)"></path>
                    <path d="M16.7701857,37.2061224 C17.2409306,37.7040816 18.016996,37.7663265 18.8921118,37.2704082 L18.8921118,37.2704082 L33.8089051,28.8 L29.4956155,24.4897959 L16.7701857,37.2061224 Z" id="Fill-52" fill="url(#linearGradient-5)" mask="url(#mask-2)"></path>
                    <path d="M29.4956155,24.4908163 L33.8089051,20.1806122 L18.8921118,11.7112245 C18.4816141,11.477551 18.0925603,11.3673469 17.7474154,11.3673469 C17.3563193,11.3673469 17.0203647,11.5091837 16.7701857,11.7734694 L29.4956155,24.4908163 Z" id="Fill-54" fill="url(#linearGradient-6)" mask="url(#mask-2)"></path>
                    <g id="Group-100" mask="url(#mask-2)">
                        <g transform="translate(48.104846, 10.204082)">
                            <path d="M2.54927262,4.04785714 C2.56152628,5.01622449 2.3664888,5.79785714 1.96824473,6.39071429 L5.06535824,6.39071429 L5.06535824,1.77234694 L2.54927262,1.77234694 L2.54927262,4.04785714 Z M1.13703788,8.4427551 L0.384458699,8.4427551 L0.384458699,6.39071429 L0.983867082,6.39071429 C1.51383804,5.93459184 1.77320725,5.15295918 1.76197473,4.04785714 L1.76197473,1.02030612 L5.85265613,1.02030612 L5.85265613,6.39071429 L6.53681902,6.39071429 L6.53681902,8.4427551 L5.78423984,8.4427551 L5.78423984,7.1427551 L1.13703788,7.1427551 L1.13703788,8.4427551 Z" id="Fill-64" stroke="none" fill="#FFFFFF" fill-rule="evenodd"></path>
                            <path d="M2.54927262,4.04785714 C2.56152628,5.01622449 2.3664888,5.79785714 1.96824473,6.39071429 L5.06535824,6.39071429 L5.06535824,1.77234694 L2.54927262,1.77234694 L2.54927262,4.04785714 L2.54927262,4.04785714 Z M1.13703788,8.4427551 L0.384458699,8.4427551 L0.384458699,6.39071429 L0.983867082,6.39071429 C1.51383804,5.93459184 1.77320725,5.15295918 1.76197473,4.04785714 L1.76197473,1.02030612 L5.85265613,1.02030612 L5.85265613,6.39071429 L6.53681902,6.39071429 L6.53681902,8.4427551 L5.78423984,8.4427551 L5.78423984,7.1427551 L1.13703788,7.1427551 L1.13703788,8.4427551 L1.13703788,8.4427551 Z" id="Stroke-66" stroke="#FFFFFF" stroke-width="0.2" fill="none"></path>
                            <path d="M8.76586256,5.83908163 C9.21924812,6.29826531 9.7737264,6.52683673 10.4303185,6.52683673 C11.0858896,6.52683673 11.641389,6.29826531 12.0947745,5.83908163 C12.5481601,5.37989796 12.775874,4.79418367 12.775874,4.08193878 C12.775874,3.36969388 12.5481601,2.78295918 12.0947745,2.32479592 C11.641389,1.86561224 11.0858896,1.63602041 10.4303185,1.63602041 C9.7737264,1.63602041 9.21924812,1.86561224 8.76586256,2.32479592 C8.31349814,2.78295918 8.08578423,3.36969388 8.08578423,4.08193878 C8.08578423,4.79418367 8.31349814,5.37989796 8.76586256,5.83908163 M12.6768236,6.35132653 C12.0743518,6.97071429 11.3258571,7.27989796 10.4303185,7.27989796 C9.53477996,7.27989796 8.78628533,6.97071429 8.18483467,6.35132653 C7.58236288,5.73295918 7.28214811,4.97683673 7.28214811,4.08193878 C7.28214811,3.18704082 7.58236288,2.42989796 8.18483467,1.81153061 C8.78628533,1.19316327 9.53477996,0.882959184 10.4303185,0.882959184 C11.3207514,0.882959184 12.0672038,1.19418367 12.672739,1.81561224 C13.2772531,2.43704082 13.5795101,3.19214286 13.5795101,4.08193878 C13.5795101,4.97683673 13.2782742,5.73295918 12.6768236,6.35132653" id="Fill-68" stroke="none" fill="#FFFFFF" fill-rule="evenodd"></path>
                            <path d="M8.76586256,5.83908163 C9.21924812,6.29826531 9.7737264,6.52683673 10.4303185,6.52683673 C11.0858896,6.52683673 11.641389,6.29826531 12.0947745,5.83908163 C12.5481601,5.37989796 12.775874,4.79418367 12.775874,4.08193878 C12.775874,3.36969388 12.5481601,2.78295918 12.0947745,2.32479592 C11.641389,1.86561224 11.0858896,1.63602041 10.4303185,1.63602041 C9.7737264,1.63602041 9.21924812,1.86561224 8.76586256,2.32479592 C8.31349814,2.78295918 8.08578423,3.36969388 8.08578423,4.08193878 C8.08578423,4.79418367 8.31349814,5.37989796 8.76586256,5.83908163 L8.76586256,5.83908163 Z M12.6768236,6.35132653 C12.0743518,6.97071429 11.3258571,7.27989796 10.4303185,7.27989796 C9.53477996,7.27989796 8.78628533,6.97071429 8.18483467,6.35132653 C7.58236288,5.73295918 7.28214811,4.97683673 7.28214811,4.08193878 C7.28214811,3.18704082 7.58236288,2.42989796 8.18483467,1.81153061 C8.78628533,1.19316327 9.53477996,0.882959184 10.4303185,0.882959184 C11.3207514,0.882959184 12.0672038,1.19418367 12.672739,1.81561224 C13.2772531,2.43704082 13.5795101,3.19214286 13.5795101,4.08193878 C13.5795101,4.97683673 13.2782742,5.73295918 12.6768236,6.35132653 L12.6768236,6.35132653 Z" id="Stroke-70" stroke="#FFFFFF" stroke-width="0.2" fill="none"></path>
                            <path d="M17.5422429,7.2794898 C16.6405774,7.2794898 15.8849348,6.97438776 15.2742939,6.36520408 C14.663653,5.755 14.3593537,4.99377551 14.3593537,4.08153061 C14.3593537,3.17030612 14.663653,2.40908163 15.2742939,1.79887755 C15.8849348,1.18867347 16.6405774,0.883571429 17.5422429,0.883571429 C18.4653522,0.883571429 19.2169102,1.2172449 19.7928324,1.88357143 L19.244481,2.41418367 C18.8288775,1.89581633 18.2601033,1.63663265 17.5422429,1.63663265 C16.8744182,1.63663265 16.3107496,1.86112245 15.8522584,2.31214286 C15.392746,2.76214286 15.1629898,3.35193878 15.1629898,4.08153061 C15.1629898,4.81112245 15.392746,5.40193878 15.8522584,5.85193878 C16.3107496,6.30193878 16.8744182,6.52744898 17.5422429,6.52744898 C18.2784838,6.52744898 18.9054629,6.23153061 19.4252225,5.63867347 L19.9725528,6.18561224 C19.6917397,6.52132653 19.3425103,6.78867347 18.9197589,6.98459184 C18.4980286,7.18153061 18.0374951,7.2794898 17.5422429,7.2794898" id="Fill-72" stroke="none" fill="#FFFFFF" fill-rule="evenodd"></path>
                            <path d="M17.5422429,7.2794898 C16.6405774,7.2794898 15.8849348,6.97438776 15.2742939,6.36520408 C14.663653,5.755 14.3593537,4.99377551 14.3593537,4.08153061 C14.3593537,3.17030612 14.663653,2.40908163 15.2742939,1.79887755 C15.8849348,1.18867347 16.6405774,0.883571429 17.5422429,0.883571429 C18.4653522,0.883571429 19.2169102,1.2172449 19.7928324,1.88357143 L19.244481,2.41418367 C18.8288775,1.89581633 18.2601033,1.63663265 17.5422429,1.63663265 C16.8744182,1.63663265 16.3107496,1.86112245 15.8522584,2.31214286 C15.392746,2.76214286 15.1629898,3.35193878 15.1629898,4.08153061 C15.1629898,4.81112245 15.392746,5.40193878 15.8522584,5.85193878 C16.3107496,6.30193878 16.8744182,6.52744898 17.5422429,6.52744898 C18.2784838,6.52744898 18.9054629,6.23153061 19.4252225,5.63867347 L19.9725528,6.18561224 C19.6917397,6.52132653 19.3425103,6.78867347 18.9197589,6.98459184 C18.4980286,7.18153061 18.0374951,7.2794898 17.5422429,7.2794898 L17.5422429,7.2794898 Z" id="Stroke-74" stroke="#FFFFFF" stroke-width="0.2" fill="none"></path>
                            <polygon id="Fill-76" stroke="none" fill="#FFFFFF" fill-rule="evenodd" points="23.1564631 7.14295918 22.3691652 7.14295918 22.3691652 1.77255102 20.6577369 1.77255102 20.6577369 1.0205102 24.8678915 1.0205102 24.8678915 1.77255102 23.1564631 1.77255102"></polygon>
                            <polygon id="Stroke-78" stroke="#FFFFFF" stroke-width="0.2" fill="none" points="23.1564631 7.14295918 22.3691652 7.14295918 22.3691652 1.77255102 20.6577369 1.77255102 20.6577369 1.0205102 24.8678915 1.0205102 24.8678915 1.77255102 23.1564631 1.77255102"></polygon>
                            <path d="M30.2730846,1.0205102 L27.9540788,6.18581633 C27.6344624,6.91438776 27.1596329,7.27969388 26.526527,7.27969388 C26.3376163,7.27969388 26.1354309,7.23377551 25.9179283,7.14295918 L26.1231772,6.41642857 C26.2549041,6.48989796 26.3917367,6.52765306 26.5336749,6.52765306 C26.7164588,6.52765306 26.858397,6.49193878 26.9574475,6.4205102 C27.0575191,6.34908163 27.1504427,6.2194898 27.2362183,6.03173469 L27.4588266,5.54397959 L25.3961265,1.0205102 L26.320257,1.0205102 L27.8346056,4.53479592 L27.8683031,4.53479592 L29.3489542,1.0205102 L30.2730846,1.0205102 Z" id="Fill-80" stroke="none" fill="#FFFFFF" fill-rule="evenodd"></path>
                            <path d="M30.2730846,1.0205102 L27.9540788,6.18581633 C27.6344624,6.91438776 27.1596329,7.27969388 26.526527,7.27969388 C26.3376163,7.27969388 26.1354309,7.23377551 25.9179283,7.14295918 L26.1231772,6.41642857 C26.2549041,6.48989796 26.3917367,6.52765306 26.5336749,6.52765306 C26.7164588,6.52765306 26.858397,6.49193878 26.9574475,6.4205102 C27.0575191,6.34908163 27.1504427,6.2194898 27.2362183,6.03173469 L27.4588266,5.54397959 L25.3961265,1.0205102 L26.320257,1.0205102 L27.8346056,4.53479592 L27.8683031,4.53479592 L29.3489542,1.0205102 L30.2730846,1.0205102 L30.2730846,1.0205102 Z" id="Stroke-82" stroke="#FFFFFF" stroke-width="0.2" fill="none"></path>
                            <polygon id="Fill-84" stroke="none" fill="#FFFFFF" fill-rule="evenodd" points="31.1645387 7.14295918 31.1645387 1.0205102 35.5973015 1.0205102 35.5973015 7.14295918 34.8089825 7.14295918 34.8089825 1.77255102 31.9508154 1.77255102 31.9508154 7.14295918"></polygon>
                            <polygon id="Stroke-86" stroke="#FFFFFF" stroke-width="0.2" fill="none" points="31.1645387 7.14295918 31.1645387 1.0205102 35.5973015 1.0205102 35.5973015 7.14295918 34.8089825 7.14295918 34.8089825 1.77255102 31.9508154 1.77255102 31.9508154 7.14295918"></polygon>
                            <polygon id="Fill-88" stroke="none" fill="#FFFFFF" fill-rule="evenodd" points="37.0002439 7.14295918 37.0002439 1.0205102 37.7875418 1.0205102 37.7875418 3.645 40.8509577 3.645 40.8509577 1.0205102 41.6382556 1.0205102 41.6382556 7.14295918 40.8509577 7.14295918 40.8509577 4.38071429 37.7875418 4.38071429 37.7875418 7.14295918"></polygon>
                            <polygon id="Stroke-90" stroke="#FFFFFF" stroke-width="0.2" fill="none" points="37.0002439 7.14295918 37.0002439 1.0205102 37.7875418 1.0205102 37.7875418 3.645 40.8509577 3.645 40.8509577 1.0205102 41.6382556 1.0205102 41.6382556 7.14295918 40.8509577 7.14295918 40.8509577 4.38071429 37.7875418 4.38071429 37.7875418 7.14295918"></polygon>
                            <path d="M44.1411686,5.83908163 C44.5945541,6.29826531 45.1490324,6.52683673 45.8056245,6.52683673 C46.4622167,6.52683673 47.016695,6.29826531 47.4700805,5.83908163 C47.9234661,5.37989796 48.15118,4.79418367 48.15118,4.08193878 C48.15118,3.36969388 47.9234661,2.78295918 47.4700805,2.32479592 C47.016695,1.86561224 46.4622167,1.63602041 45.8056245,1.63602041 C45.1490324,1.63602041 44.5945541,1.86561224 44.1411686,2.32479592 C43.6888041,2.78295918 43.4610902,3.36969388 43.4610902,4.08193878 C43.4610902,4.79418367 43.6888041,5.37989796 44.1411686,5.83908163 M48.0521296,6.35132653 C47.4496578,6.97071429 46.7011631,7.27989796 45.8056245,7.27989796 C44.9100859,7.27989796 44.1615913,6.97071429 43.5601407,6.35132653 C42.9576689,5.73295918 42.6574541,4.97683673 42.6574541,4.08193878 C42.6574541,3.18704082 42.9576689,2.42989796 43.5601407,1.81153061 C44.1615913,1.19316327 44.9100859,0.882959184 45.8056245,0.882959184 C46.6960574,0.882959184 47.4425098,1.19418367 48.048045,1.81561224 C48.6525591,2.43704082 48.9548161,3.19214286 48.9548161,4.08193878 C48.9548161,4.97683673 48.6535802,5.73295918 48.0521296,6.35132653" id="Fill-92" stroke="none" fill="#FFFFFF" fill-rule="evenodd"></path>
                            <path d="M44.1411686,5.83908163 C44.5945541,6.29826531 45.1490324,6.52683673 45.8056245,6.52683673 C46.4622167,6.52683673 47.016695,6.29826531 47.4700805,5.83908163 C47.9234661,5.37989796 48.15118,4.79418367 48.15118,4.08193878 C48.15118,3.36969388 47.9234661,2.78295918 47.4700805,2.32479592 C47.016695,1.86561224 46.4622167,1.63602041 45.8056245,1.63602041 C45.1490324,1.63602041 44.5945541,1.86561224 44.1411686,2.32479592 C43.6888041,2.78295918 43.4610902,3.36969388 43.4610902,4.08193878 C43.4610902,4.79418367 43.6888041,5.37989796 44.1411686,5.83908163 L44.1411686,5.83908163 Z M48.0521296,6.35132653 C47.4496578,6.97071429 46.7011631,7.27989796 45.8056245,7.27989796 C44.9100859,7.27989796 44.1615913,6.97071429 43.5601407,6.35132653 C42.9576689,5.73295918 42.6574541,4.97683673 42.6574541,4.08193878 C42.6574541,3.18704082 42.9576689,2.42989796 43.5601407,1.81153061 C44.1615913,1.19316327 44.9100859,0.882959184 45.8056245,0.882959184 C46.6960574,0.882959184 47.4425098,1.19418367 48.048045,1.81561224 C48.6525591,2.43704082 48.9548161,3.19214286 48.9548161,4.08193878 C48.9548161,4.97683673 48.6535802,5.73295918 48.0521296,6.35132653 L48.0521296,6.35132653 Z" id="Stroke-94" stroke="#FFFFFF" stroke-width="0.2" fill="none"></path>
                            <path d="M52.9605388,6.39061224 L54.5443248,6.39061224 C54.8465819,6.39061224 55.0916551,6.2844898 55.2795446,6.07326531 C55.4684553,5.86306122 55.5624,5.63244898 55.5624,5.38142857 C55.5624,5.13040816 55.4653919,4.90081633 55.2713755,4.69265306 C55.0773592,4.4855102 54.8230957,4.38040816 54.5096061,4.38040816 L52.9605388,4.38040816 L52.9605388,6.39061224 Z M52.9605388,3.64571429 L54.3891117,3.64571429 C54.6862631,3.64571429 54.9252095,3.5477551 55.1049299,3.34979592 C55.2836292,3.15387755 55.3734894,2.93857143 55.3734894,2.70489796 C55.3734894,2.47122449 55.2866926,2.25693878 55.1120779,2.06408163 C54.9384843,1.87020408 54.7097493,1.77326531 54.4248516,1.77326531 L52.9605388,1.77326531 L52.9605388,3.64571429 Z M52.174262,7.14265306 L52.174262,1.02020408 L54.3891117,1.02020408 C54.8690469,1.02020408 55.2836292,1.17938776 55.6349009,1.49469388 C55.9861726,1.81204082 56.1618084,2.20897959 56.1618084,2.68755102 C56.1618084,2.97836735 56.0862442,3.2355102 55.9340945,3.45795918 C55.7839871,3.68040816 55.5818017,3.8477551 55.3306016,3.96204082 L55.3306016,3.99571429 C55.6328586,4.09877551 55.8809953,4.27530612 56.0760328,4.52632653 C56.269028,4.77734694 56.3670573,5.06816327 56.3670573,5.39877551 C56.3670573,5.90081633 56.1822312,6.31612245 55.8146213,6.64673469 C55.4470114,6.97734694 55.0120063,7.14265306 54.5096061,7.14265306 L52.174262,7.14265306 Z" id="Fill-96" stroke="none" fill="#FFFFFF" fill-rule="evenodd"></path>
                            <path d="M52.9605388,6.39061224 L54.5443248,6.39061224 C54.8465819,6.39061224 55.0916551,6.2844898 55.2795446,6.07326531 C55.4684553,5.86306122 55.5624,5.63244898 55.5624,5.38142857 C55.5624,5.13040816 55.4653919,4.90081633 55.2713755,4.69265306 C55.0773592,4.4855102 54.8230957,4.38040816 54.5096061,4.38040816 L52.9605388,4.38040816 L52.9605388,6.39061224 L52.9605388,6.39061224 Z M52.9605388,3.64571429 L54.3891117,3.64571429 C54.6862631,3.64571429 54.9252095,3.5477551 55.1049299,3.34979592 C55.2836292,3.15387755 55.3734894,2.93857143 55.3734894,2.70489796 C55.3734894,2.47122449 55.2866926,2.25693878 55.1120779,2.06408163 C54.9384843,1.87020408 54.7097493,1.77326531 54.4248516,1.77326531 L52.9605388,1.77326531 L52.9605388,3.64571429 L52.9605388,3.64571429 Z M52.174262,7.14265306 L52.174262,1.02020408 L54.3891117,1.02020408 C54.8690469,1.02020408 55.2836292,1.17938776 55.6349009,1.49469388 C55.9861726,1.81204082 56.1618084,2.20897959 56.1618084,2.68755102 C56.1618084,2.97836735 56.0862442,3.2355102 55.9340945,3.45795918 C55.7839871,3.68040816 55.5818017,3.8477551 55.3306016,3.96204082 L55.3306016,3.99571429 C55.6328586,4.09877551 55.8809953,4.27530612 56.0760328,4.52632653 C56.269028,4.77734694 56.3670573,5.06816327 56.3670573,5.39877551 C56.3670573,5.90081633 56.1822312,6.31612245 55.8146213,6.64673469 C55.4470114,6.97734694 55.0120063,7.14265306 54.5096061,7.14265306 L52.174262,7.14265306 L52.174262,7.14265306 Z" id="Stroke-98" stroke="#FFFFFF" stroke-width="0.2" fill="none"></path>
                        </g>
                    </g>
                </g>
            </g>
        </g>
    </g>
</svg>