<svg width="56" height="20" viewBox="0 0 56 20" fill="none" xmlns="http://www.w3.org/2000/svg">
<path fill-rule="evenodd" clip-rule="evenodd" d="M52.9355 7.80413C52.9355 7.19746 53.4143 6.7028 53.989 6.7028C54.5791 6.7028 55.0421 7.19746 55.0421 7.80413C55.0421 8.41048 54.5791 8.90515 53.989 8.90515C53.4143 8.92101 52.9355 8.42635 52.9355 7.80413ZM53.989 8.66559C54.4357 8.66559 54.787 8.28262 54.787 7.82C54.787 7.35706 54.4199 6.97409 53.989 6.97409C53.5419 6.97409 53.1907 7.35706 53.1907 7.82C53.1907 8.28262 53.5419 8.66559 53.989 8.66559ZM53.8452 8.29879H53.6219V7.32533H54.0207C54.1007 7.32533 54.1965 7.32533 54.2603 7.37324C54.3399 7.42115 54.3719 7.51667 54.3719 7.61249C54.3719 7.72418 54.3082 7.82 54.2123 7.85173L54.3878 8.28261H54.1486L54.0048 7.89964H53.8452V8.29879ZM53.8452 7.75622H53.9731C54.0207 7.75622 54.0686 7.75622 54.1007 7.74035C54.1324 7.72417 54.1486 7.67627 54.1486 7.62836C54.1486 7.59662 54.1324 7.54871 54.1007 7.53284C54.0686 7.51666 54.0048 7.51666 53.9731 7.51666H53.8611L53.8452 7.75622" fill="#FD0C15"/>
<path fill-rule="evenodd" clip-rule="evenodd" d="M37.8548 0.446988L37.5674 2.33015C36.9451 1.99508 36.4822 1.86722 35.9875 1.86722C34.679 1.86722 33.7535 3.20778 33.7535 5.10711C33.7535 6.41564 34.3757 7.21365 35.3971 7.21365C35.8279 7.21365 36.3067 7.06991 36.8972 6.76658L36.5939 8.74556C35.9396 8.9372 35.5246 9.00098 35.0299 9.00098C33.1309 9.00098 31.95 7.56458 31.95 5.26641C31.95 2.17054 33.5777 -6.65308e-05 35.9238 -6.65308e-05C36.2268 -6.65308e-05 36.4984 0.0319803 36.7218 0.0957579L37.4557 0.287392C37.6473 0.367036 37.6952 0.38321 37.8548 0.446988Z" fill="#FD0C15"/>
<path fill-rule="evenodd" clip-rule="evenodd" d="M31.9977 1.73971C31.9498 1.72384 31.886 1.72384 31.8222 1.72384C31.2476 1.72384 30.9125 2.02686 30.3699 2.87277L30.5292 1.80348H28.9335L27.8484 8.84143H29.6199C30.2583 4.53255 30.4175 3.79833 31.2634 3.79833C31.3114 3.79833 31.3272 3.79833 31.391 3.79833C31.5506 2.95273 31.7581 2.33019 32.0615 1.75557L31.9977 1.73971Z" fill="#FD0C15"/>
<path fill-rule="evenodd" clip-rule="evenodd" d="M21.4489 8.74562C20.9701 8.90522 20.5871 8.98486 20.188 8.98486C19.2945 8.98486 18.7998 8.44229 18.7998 7.43709C18.7998 7.24544 18.8157 7.02207 18.8477 6.79869L18.9591 6.11238L19.039 5.55394L19.805 0.750081H21.5606L21.3531 1.78764H22.2628L22.0073 3.49531L21.1135 3.49501L20.6509 6.43158C20.635 6.55913 20.6189 6.65496 20.6189 6.71874C20.6189 7.08585 20.8105 7.24545 21.2255 7.24545C21.4327 7.24545 21.5765 7.22958 21.704 7.18167L21.4489 8.74562" fill="#FD0C15"/>
<path fill-rule="evenodd" clip-rule="evenodd" d="M14.4907 4.02172C14.4907 4.91554 14.9057 5.52189 15.8313 5.98482C16.5334 6.33576 16.6613 6.44744 16.6613 6.76664C16.6613 7.19753 16.3421 7.40504 15.6558 7.40504C15.1291 7.40504 14.6503 7.3254 14.076 7.11788L13.8364 8.74562L13.9164 8.7618L14.2356 8.82557C14.3473 8.84144 14.4907 8.87317 14.6982 8.88935C15.1132 8.92108 15.4483 8.95312 15.6717 8.95312C17.5231 8.95312 18.3849 8.20304 18.3849 6.60704C18.3849 5.64945 18.0336 5.07513 17.1401 4.64424C16.4059 4.293 16.3262 4.21335 16.3262 3.87829C16.3262 3.495 16.6134 3.30367 17.1877 3.30367C17.539 3.30367 18.0019 3.35158 18.4486 3.41536L18.7041 1.78763C18.2411 1.70768 17.5551 1.6439 17.156 1.6439C15.1611 1.6439 14.4748 2.71319 14.4907 4.02172" fill="#FD0C15"/>
<path fill-rule="evenodd" clip-rule="evenodd" d="M51.9145 8.82552H50.2389L50.3185 8.1392C49.8401 8.68178 49.3292 8.92102 48.6908 8.92102C47.3982 8.92102 46.5522 7.75623 46.5522 6.00063C46.5522 3.65455 47.8611 1.67587 49.425 1.67587C50.111 1.67587 50.6219 1.9789 51.1165 2.63316L51.4995 0.15953H53.2393L51.9145 8.82552V8.82552ZM49.3134 7.1816C50.1431 7.1816 50.7177 6.20813 50.7177 4.80378C50.7177 3.90996 50.3826 3.4153 49.776 3.4153C48.978 3.4153 48.4037 4.40495 48.4037 5.77725C48.4037 6.70281 48.7067 7.1816 49.3134 7.1816" fill="#FD0C15"/>
<path fill-rule="evenodd" clip-rule="evenodd" d="M27.034 8.68184C26.4277 8.87317 25.8533 8.96899 25.2149 8.96899C23.2518 8.96899 22.2146 7.88384 22.2146 5.80935C22.2146 3.38331 23.5231 1.61216 25.2946 1.61216C26.7469 1.61216 27.6727 2.61737 27.6727 4.18132C27.6727 4.69216 27.6086 5.20269 27.449 5.92105H23.9381C23.9223 6.03273 23.9223 6.08064 23.9223 6.14442C23.9223 6.97415 24.449 7.38917 25.4704 7.38917C26.0926 7.38917 26.6672 7.24545 27.3056 6.94242L27.034 8.68184V8.68184ZM26.0447 4.48465C26.0609 4.34092 26.0609 4.21336 26.0609 4.13341C26.0609 3.55878 25.7575 3.22403 25.2308 3.22403C24.6724 3.22403 24.2732 3.67079 24.1136 4.48465H26.0447" fill="#FD0C15"/>
<path fill-rule="evenodd" clip-rule="evenodd" d="M7.40495 8.82568H5.64935L6.65486 2.17072L4.38873 8.82568H3.19158L3.04815 2.21863L1.97887 8.82568H0.334961L1.70758 0.175877H4.245L4.30877 5.53787L6.03232 0.175877H8.77725L7.40495 8.82568Z" fill="#FD0C15"/>
<path fill-rule="evenodd" clip-rule="evenodd" d="M11.9534 5.69748C11.762 5.68161 11.6821 5.66574 11.5545 5.66574C10.549 5.66574 10.0544 6.03285 10.0544 6.73503C10.0544 7.16591 10.3098 7.45307 10.6928 7.45307C11.3949 7.45307 11.9216 6.73503 11.9534 5.69748V5.69748ZM13.2302 8.82569H11.762L11.7938 8.09147C11.347 8.68196 10.7565 8.93738 9.94268 8.93738C8.98508 8.93738 8.33081 8.15525 8.33081 7.02219C8.33081 5.29864 9.47974 4.3093 11.427 4.3093C11.6342 4.3093 11.8896 4.32517 12.145 4.35721C12.1929 4.11766 12.2088 4.02184 12.2088 3.89428C12.2088 3.43135 11.9058 3.25588 11.0757 3.25588C10.5811 3.25588 10.0065 3.33552 9.6073 3.46339L9.38423 3.54304L9.22463 3.59095L9.46387 2.01112C10.3415 1.73983 10.932 1.62816 11.5704 1.62816C13.0864 1.62816 13.8844 2.3462 13.8844 3.68677C13.8844 4.03802 13.8524 4.29343 13.7407 5.09112L13.3898 7.59681L13.326 8.04356L13.2781 8.39449L13.2464 8.64991L13.2302 8.82569" fill="#FD0C15"/>
<path fill-rule="evenodd" clip-rule="evenodd" d="M40.9026 5.69748C40.7271 5.68161 40.6316 5.66574 40.5038 5.66574C39.4982 5.66574 38.9877 6.03285 38.9877 6.73503C38.9877 7.16591 39.2431 7.45307 39.6261 7.45307C40.3442 7.45307 40.8709 6.73503 40.9026 5.69748V5.69748ZM42.1794 8.82569H40.7113L40.7433 8.09147C40.2962 8.68196 39.7058 8.93738 38.8919 8.93738C37.9343 8.93738 37.28 8.15525 37.28 7.02219C37.28 5.29863 38.4293 4.3093 40.3759 4.3093C40.5675 4.3093 40.8388 4.32517 41.0942 4.35721C41.1422 4.11765 41.158 4.02184 41.158 3.89428C41.158 3.43135 40.855 3.25588 40.025 3.25588C39.5303 3.25588 38.9557 3.33552 38.5568 3.46339L38.3014 3.52716L38.1418 3.57507L38.3814 1.99526C39.259 1.72397 39.8495 1.61228 40.4879 1.61228C42.0039 1.61228 42.8019 2.33032 42.8019 3.6709C42.8019 4.02183 42.7699 4.27726 42.6582 5.07526L42.2911 7.56476L42.2432 8.01182L42.1956 8.36276L42.1635 8.60231L42.1794 8.82569" fill="#FD0C15"/>
<path fill-rule="evenodd" clip-rule="evenodd" d="M47.1112 1.73971C47.0633 1.72384 46.9995 1.72384 46.9357 1.72384C46.3611 1.72384 46.0257 2.02686 45.4832 2.87277L45.6431 1.80348H44.0471L42.9619 8.84143H44.7334C45.3715 4.53255 45.5311 3.79833 46.377 3.79833C46.4249 3.79833 46.4249 3.79833 46.5048 3.79833C46.6641 2.95273 46.8878 2.33019 47.175 1.75557L47.1112 1.73971" fill="#FD0C15"/>
<path fill-rule="evenodd" clip-rule="evenodd" d="M39.7059 15.6719C39.7059 17.2679 39.2112 18.2093 38.4294 18.2093C37.8548 18.2252 37.5194 17.5868 37.5194 16.6453C37.5194 15.5281 38.0302 14.2517 38.8282 14.2517C39.4825 14.2517 39.7059 14.9377 39.7059 15.6719ZM41.4456 15.6877C41.4456 13.9163 40.5676 12.5278 38.924 12.5278C37.0247 12.5278 35.7961 14.2038 35.7961 16.6771C35.7961 18.4489 36.53 19.9011 38.3174 19.9011C40.1209 19.9011 41.4456 18.6243 41.4456 15.6877Z" fill="#F3AE12"/>
<path fill-rule="evenodd" clip-rule="evenodd" d="M36.3547 11.2989L36.0834 13.1821C35.4929 12.8473 35.0779 12.7195 34.6152 12.7195C33.3864 12.7195 32.5246 14.06 32.5246 15.959C32.5246 17.2676 33.0989 18.0656 34.0565 18.0656C34.4715 18.0656 34.9183 17.9222 35.4608 17.6188L35.1737 19.5978C34.5673 19.7894 34.1682 19.8529 33.7056 19.8529C31.9341 19.8529 30.8169 18.4168 30.8169 16.1186C30.8169 13.0228 32.3488 10.8522 34.5353 10.8522C34.8224 10.8522 35.062 10.8842 35.2695 10.948L35.9396 11.1393C36.163 11.2034 36.2109 11.2193 36.3547 11.2989Z" fill="#F3AE12"/>
<path fill-rule="evenodd" clip-rule="evenodd" d="M25.4544 12.5758C25.4065 12.5599 25.3427 12.5599 25.2789 12.5599C24.7364 12.5599 24.433 12.8632 23.9225 13.7088L24.0821 12.6395H22.5978L21.5923 19.6775H23.2362C23.8267 15.3686 23.9863 14.6344 24.7684 14.6344C24.816 14.6344 24.816 14.6344 24.896 14.6506C25.0394 13.8047 25.2472 13.1821 25.5182 12.6078L25.4544 12.5758" fill="#F3AE12"/>
<path fill-rule="evenodd" clip-rule="evenodd" d="M46.9671 19.6137H45.4032L45.4828 18.9273C45.036 19.4699 44.5572 19.7095 43.9509 19.7095C42.7537 19.7095 41.9561 18.5444 41.9561 16.7891C41.9561 14.443 43.1849 12.464 44.6372 12.464C45.2756 12.464 45.7703 12.7674 46.217 13.4375L46.5841 10.9638H48.2119L46.9671 19.6137V19.6137ZM44.5255 17.9539C45.3073 17.9539 45.834 16.9804 45.834 15.5761C45.834 14.6822 45.5307 14.2037 44.9564 14.2037C44.2063 14.2037 43.6796 15.1772 43.6796 16.5654C43.6796 17.4909 43.9668 17.9539 44.5255 17.9539Z" fill="#F3AE12"/>
<path fill-rule="evenodd" clip-rule="evenodd" d="M10.0063 19.5816C9.44787 19.7732 8.9053 19.869 8.31481 19.869C6.47957 19.869 5.52197 18.7839 5.52197 16.7091C5.52197 14.2995 6.75086 12.5119 8.39446 12.5119C9.75121 12.5119 10.613 13.5012 10.613 15.0813C10.613 15.5922 10.5489 16.1027 10.4052 16.8208H7.13384C7.11797 16.9324 7.11797 16.9804 7.11797 17.0441C7.11797 17.8583 7.61263 18.273 8.56992 18.273C9.16041 18.273 9.68712 18.1293 10.2776 17.8263L10.0063 19.5816V19.5816ZM9.08076 15.3844C9.08076 15.2409 9.09663 15.1134 9.09663 15.0334C9.09663 14.4588 8.80948 14.1237 8.31481 14.1237C7.7881 14.1237 7.42099 14.5705 7.26139 15.3844H9.08076Z" fill="#F3AE12"/>
<path fill-rule="evenodd" clip-rule="evenodd" d="M29.6038 19.5816C29.0454 19.7732 28.5028 19.869 27.9123 19.869C26.0612 19.869 25.1033 18.7839 25.1033 16.7091C25.1033 14.2995 26.3322 12.5119 27.9761 12.5119C29.3325 12.5119 30.2105 13.5012 30.2105 15.0813C30.2105 15.5922 30.1467 16.1027 30.003 16.8208H26.7313C26.7151 16.9324 26.7151 16.9804 26.7151 17.0441C26.7151 17.8583 27.2101 18.273 28.1677 18.273C28.7582 18.273 29.2849 18.1293 29.8751 17.8263L29.6038 19.5816V19.5816ZM28.6782 15.3844C28.6941 15.2409 28.6941 15.1134 28.6941 15.0334C28.6941 14.4588 28.407 14.1237 27.9123 14.1237C27.3856 14.1237 27.0185 14.5705 26.8589 15.3844H28.6782Z" fill="#F3AE12"/>
<path fill-rule="evenodd" clip-rule="evenodd" d="M52.5848 19.5816C52.0101 19.7732 51.4676 19.869 50.8929 19.869C49.0577 19.869 48.0842 18.7839 48.0842 16.7091C48.0842 14.2995 49.3131 12.5119 50.9729 12.5119C52.3293 12.5119 53.1908 13.5012 53.1908 15.0813C53.1908 15.5922 53.1273 16.1027 52.9836 16.8208H49.712C49.6961 16.9324 49.6961 16.9804 49.6961 17.0441C49.6961 17.8583 50.1908 18.273 51.1484 18.273C51.7388 18.273 52.2656 18.1293 52.856 17.8263L52.5848 19.5816V19.5816ZM51.6589 15.3844C51.6589 15.2409 51.6748 15.1134 51.6748 15.0334C51.6748 14.4588 51.3876 14.1237 50.8929 14.1237C50.3662 14.1237 49.9994 14.5705 49.8398 15.3844H51.6589Z" fill="#F3AE12"/>
<path fill-rule="evenodd" clip-rule="evenodd" d="M5.12274 12.895C4.80354 12.6716 4.35679 12.4961 3.75044 12.4961C3.08 12.4961 2.55329 12.6396 2.55329 13.3417C2.55329 14.5868 4.97933 14.1239 4.97933 16.805C4.97933 19.2466 3.38333 19.885 1.93107 19.885C1.29267 19.885 0.542577 19.6775 0 19.4224L0.398846 17.6347C0.734223 17.9381 1.38849 18.1456 1.94693 18.1456C2.47364 18.1456 3.27164 18.0019 3.27164 17.0922C3.27164 15.672 0.845908 16.1983 0.845908 13.7088C0.845908 11.4268 2.26613 10.7564 3.63875 10.7564C4.4047 10.7564 5.13892 10.8684 5.55363 11.1556L5.12274 12.895" fill="#F3AE12"/>
<path fill-rule="evenodd" clip-rule="evenodd" d="M14.8259 19.5814C14.4906 19.741 14.0279 19.853 13.3575 19.853C11.9214 19.853 11.0276 18.4166 11.0276 16.661C11.0276 14.3632 12.3203 12.5438 14.2193 12.5438C14.6343 12.5438 15.2727 12.7193 15.7674 13.0064L15.4006 14.6821C15.0493 14.4428 14.6822 14.2994 14.2992 14.2994C13.4216 14.2994 12.7832 15.1133 12.7832 16.5493C12.7832 17.3794 13.2461 18.0654 13.9642 18.0654C14.3951 18.0654 14.6981 17.9699 15.0652 17.7624L14.8259 19.5814" fill="#F3AE12"/>
<path fill-rule="evenodd" clip-rule="evenodd" d="M20.986 17.81C20.9064 18.4167 20.8264 19.0072 20.7785 19.6294H19.1987L19.3263 18.4966H19.3104C18.8157 19.2626 18.3052 19.7893 17.3952 19.7893C16.4059 19.7893 15.8633 18.7359 15.8633 17.3794C15.8633 16.9006 15.895 16.6452 15.9908 15.911L16.4379 12.6555H18.2094L17.7306 15.9272C17.6827 16.2781 17.6189 16.6294 17.6189 16.9962C17.6189 17.4112 17.8102 17.8262 18.289 17.7942C19.0074 17.7942 19.4379 16.9165 19.5658 15.8793L20.0605 12.6555H21.7682L20.986 17.81" fill="#F3AE12"/>
<path fill-rule="evenodd" clip-rule="evenodd" d="M54.2287 19.5498H53.9574V18.3847H53.5745V18.1293H54.6117V18.3847H54.2287V19.5498" fill="#F3AE12"/>
<path fill-rule="evenodd" clip-rule="evenodd" d="M55.9999 19.5498H55.7445V18.3688L55.5052 19.5498H55.2498L55.0105 18.3688V19.5498H54.7551V18.1293H55.154L55.3777 19.2465H55.3935L55.6169 18.1293H55.9999V19.5498Z" fill="#F3AE12"/>
</svg>
