<svg width="60" height="25" viewBox="0 0 60 25" fill="none" xmlns="http://www.w3.org/2000/svg">
<path fill-rule="evenodd" clip-rule="evenodd" d="M12.1561 0.0433824C12.1561 0.0696721 11.9681 0.0867647 11.6789 0.0867647C11.3896 0.0867647 11.2017 0.103857 11.2017 0.130147C11.2017 0.154268 11.086 0.173529 10.9414 0.173529C10.7968 0.173529 10.6811 0.192791 10.6811 0.216912C10.6811 0.241032 10.5654 0.260294 10.4208 0.260294C10.2762 0.260294 10.1605 0.279556 10.1605 0.303676C10.1605 0.327537 10.0824 0.347059 9.98695 0.347059C9.89151 0.347059 9.81342 0.366581 9.81342 0.390441C9.81342 0.414301 9.73533 0.433824 9.63989 0.433824C9.54445 0.433824 9.46636 0.453346 9.46636 0.477206C9.46636 0.501066 9.40779 0.520588 9.33621 0.520588C9.26463 0.520588 9.20607 0.54011 9.20607 0.563971C9.20607 0.587831 9.1475 0.607353 9.07592 0.607353C9.00434 0.607353 8.94577 0.626875 8.94577 0.650735C8.94577 0.674596 8.88721 0.694118 8.81563 0.694118C8.74404 0.694118 8.68548 0.71364 8.68548 0.7375C8.68548 0.76136 8.62691 0.780882 8.55533 0.780882C8.48375 0.780882 8.42518 0.800404 8.42518 0.824265C8.42518 0.848125 8.38614 0.867647 8.33842 0.867647C8.2907 0.867647 8.25165 0.887169 8.25165 0.911029C8.25165 0.93489 8.19309 0.954412 8.12151 0.954412C8.04993 0.954412 7.99136 0.973934 7.99136 0.997794C7.99136 1.02165 7.95232 1.04118 7.9046 1.04118C7.85688 1.04118 7.81783 1.0607 7.81783 1.08456C7.81783 1.10842 7.77879 1.12794 7.73107 1.12794C7.68335 1.12794 7.6443 1.14746 7.6443 1.17132C7.6443 1.19518 7.60526 1.21471 7.55754 1.21471C7.50982 1.21471 7.47077 1.23423 7.47077 1.25809C7.47077 1.28195 7.43173 1.30147 7.38401 1.30147C7.33629 1.30147 7.29724 1.32099 7.29724 1.34485C7.29724 1.36871 7.2582 1.38824 7.21048 1.38824C7.16276 1.38824 7.12371 1.40776 7.12371 1.43162C7.12371 1.45548 7.08467 1.475 7.03695 1.475C6.98923 1.475 6.95018 1.49452 6.95018 1.51838C6.95018 1.54224 6.91543 1.56176 6.87301 1.56176C6.83054 1.56176 6.76767 1.60081 6.73327 1.64853C6.69887 1.69625 6.63601 1.73529 6.59354 1.73529C6.55111 1.73529 6.51636 1.75482 6.51636 1.77868C6.51636 1.80254 6.48161 1.82206 6.43918 1.82206C6.39671 1.82206 6.33385 1.8611 6.29945 1.90882C6.26505 1.95654 6.20648 1.99559 6.1693 1.99559C6.13212 1.99559 6.07356 2.03463 6.03915 2.08235C6.00475 2.13007 5.9497 2.16912 5.91682 2.16912C5.88398 2.16912 5.80233 2.22768 5.73548 2.29926C5.66863 2.37085 5.59054 2.42941 5.56195 2.42941C5.53336 2.42941 5.45527 2.48798 5.38842 2.55956C5.32157 2.63114 5.24443 2.68971 5.2171 2.68971C5.18973 2.68971 5.03255 2.82636 4.86783 2.99338C4.70311 3.1604 4.5475 3.29706 4.52207 3.29706C4.46151 3.29706 3.91342 3.84546 3.91342 3.90602C3.91342 3.93166 3.79629 4.06757 3.65313 4.20809C3.50996 4.3486 3.39283 4.48569 3.39283 4.51276C3.39283 4.53983 3.31474 4.63697 3.2193 4.72868C3.12386 4.82039 3.04577 4.9219 3.04577 4.95431C3.04577 4.98671 3.00673 5.04133 2.95901 5.07573C2.91129 5.11014 2.87224 5.1687 2.87224 5.20588C2.87224 5.24306 2.8332 5.30163 2.78548 5.33603C2.73776 5.37043 2.69871 5.429 2.69871 5.46618C2.69871 5.50335 2.65967 5.56192 2.61195 5.59632C2.56423 5.63073 2.52518 5.68929 2.52518 5.72647C2.52518 5.76365 2.48614 5.82222 2.43842 5.85662C2.3907 5.89102 2.35165 5.95388 2.35165 5.99635C2.35165 6.03878 2.33213 6.07353 2.30827 6.07353C2.28441 6.07353 2.26489 6.11257 2.26489 6.16029C2.26489 6.20801 2.24537 6.24706 2.22151 6.24706C2.19765 6.24706 2.17813 6.28181 2.17813 6.32424C2.17813 6.36671 2.13908 6.42957 2.09136 6.46397C2.04364 6.49837 2.0046 6.56123 2.0046 6.6037C2.0046 6.64613 1.98507 6.68088 1.96121 6.68088C1.93735 6.68088 1.91783 6.71993 1.91783 6.76765C1.91783 6.81537 1.89831 6.85441 1.87445 6.85441C1.85059 6.85441 1.83107 6.91298 1.83107 6.98456C1.83107 7.05614 1.81154 7.11471 1.78768 7.11471C1.76382 7.11471 1.7443 7.15375 1.7443 7.20147C1.7443 7.24919 1.72478 7.28823 1.70092 7.28823C1.67706 7.28823 1.65754 7.32728 1.65754 7.375C1.65754 7.42272 1.63801 7.46176 1.61415 7.46176C1.59029 7.46176 1.57077 7.52033 1.57077 7.59191C1.57077 7.66349 1.55125 7.72206 1.52739 7.72206C1.50353 7.72206 1.48401 7.7611 1.48401 7.80882C1.48401 7.85654 1.46449 7.89559 1.44063 7.89559C1.41676 7.89559 1.39724 7.95415 1.39724 8.02573C1.39724 8.09732 1.37772 8.15588 1.35386 8.15588C1.33 8.15588 1.31048 8.21445 1.31048 8.28603C1.31048 8.35761 1.29096 8.41618 1.2671 8.41618C1.24324 8.41618 1.22371 8.47474 1.22371 8.54632C1.22371 8.6179 1.20419 8.67647 1.18033 8.67647C1.15647 8.67647 1.13695 8.75456 1.13695 8.85C1.13695 8.94544 1.11743 9.02353 1.09357 9.02353C1.06971 9.02353 1.05018 9.10162 1.05018 9.19706C1.05018 9.2925 1.03066 9.37059 1.0068 9.37059C0.982941 9.37059 0.963419 9.4682 0.963419 9.5875C0.963419 9.7068 0.943897 9.80441 0.920037 9.80441C0.896176 9.80441 0.876654 9.90202 0.876654 10.0213C0.876654 10.1406 0.857132 10.2382 0.833272 10.2382C0.80798 10.2382 0.78989 10.3828 0.78989 10.5853C0.78989 10.7878 0.771799 10.9324 0.746507 10.9324C0.718656 10.9324 0.703125 11.3517 0.703125 12.1037C0.703125 12.8556 0.718656 13.275 0.746507 13.275C0.771799 13.275 0.78989 13.4196 0.78989 13.6221C0.78989 13.8245 0.80798 13.9691 0.833272 13.9691C0.857393 13.9691 0.876654 14.0848 0.876654 14.2294C0.876654 14.374 0.895916 14.4897 0.920037 14.4897C0.943897 14.4897 0.963419 14.5873 0.963419 14.7066C0.963419 14.8259 0.982941 14.9235 1.0068 14.9235C1.03066 14.9235 1.05018 15.0016 1.05018 15.0971C1.05018 15.1925 1.06971 15.2706 1.09357 15.2706C1.11743 15.2706 1.13695 15.3292 1.13695 15.4007C1.13695 15.4723 1.15647 15.5309 1.18033 15.5309C1.20419 15.5309 1.22371 15.609 1.22371 15.7044C1.22371 15.7999 1.24324 15.8779 1.2671 15.8779C1.29096 15.8779 1.31048 15.9365 1.31048 16.0081C1.31048 16.0797 1.33 16.1382 1.35386 16.1382C1.37772 16.1382 1.39724 16.1773 1.39724 16.225C1.39724 16.2727 1.41676 16.3118 1.44063 16.3118C1.46449 16.3118 1.48401 16.3703 1.48401 16.4419C1.48401 16.5135 1.50353 16.5721 1.52739 16.5721C1.55125 16.5721 1.57077 16.6111 1.57077 16.6588C1.57077 16.7065 1.59029 16.7456 1.61415 16.7456C1.63801 16.7456 1.65754 16.8042 1.65754 16.8757C1.65754 16.9473 1.67706 17.0059 1.70092 17.0059C1.72478 17.0059 1.7443 17.0449 1.7443 17.0926C1.7443 17.1404 1.76382 17.1794 1.78768 17.1794C1.81154 17.1794 1.83107 17.2185 1.83107 17.2662C1.83107 17.3139 1.85059 17.3529 1.87445 17.3529C1.89831 17.3529 1.91783 17.392 1.91783 17.4397C1.91783 17.4874 1.93735 17.5265 1.96121 17.5265C1.98507 17.5265 2.0046 17.5655 2.0046 17.6132C2.0046 17.661 2.02412 17.7 2.04798 17.7C2.07184 17.7 2.09136 17.739 2.09136 17.7868C2.09136 17.8345 2.11088 17.8735 2.13474 17.8735C2.1586 17.8735 2.17813 17.9126 2.17813 17.9603C2.17813 18.008 2.19765 18.0471 2.22151 18.0471C2.24537 18.0471 2.26489 18.0818 2.26489 18.1242C2.26489 18.1667 2.30393 18.2296 2.35165 18.264C2.39938 18.2984 2.43842 18.3569 2.43842 18.3941C2.43842 18.4313 2.47746 18.4899 2.52518 18.5243C2.5729 18.5587 2.61195 18.6215 2.61195 18.664C2.61195 18.7064 2.63147 18.7412 2.65533 18.7412C2.67919 18.7412 2.69871 18.7724 2.69871 18.8105C2.69871 18.8487 2.75728 18.9346 2.82886 19.0015C2.90044 19.0683 2.95901 19.1464 2.95901 19.175C2.95901 19.2036 3.01757 19.2817 3.08915 19.3485C3.16074 19.4154 3.2193 19.4931 3.2193 19.5212C3.2193 19.5493 3.29739 19.6473 3.39283 19.739C3.48827 19.8307 3.56636 19.9269 3.56636 19.9528C3.56636 20.0144 4.89612 21.3441 4.95763 21.3441C4.98358 21.3441 5.0798 21.4222 5.17151 21.5176C5.26322 21.6131 5.36122 21.6912 5.38929 21.6912C5.4174 21.6912 5.4951 21.7497 5.56195 21.8213C5.6288 21.8929 5.70689 21.9515 5.73548 21.9515C5.76407 21.9515 5.84216 22.01 5.90901 22.0816C5.97586 22.1532 6.0618 22.2118 6.09993 22.2118C6.13811 22.2118 6.1693 22.2313 6.1693 22.2551C6.1693 22.279 6.20405 22.2985 6.24648 22.2985C6.28895 22.2985 6.35181 22.3376 6.38621 22.3853C6.42062 22.433 6.47918 22.4721 6.51636 22.4721C6.55354 22.4721 6.61211 22.5111 6.64651 22.5588C6.68091 22.6065 6.74377 22.6456 6.78624 22.6456C6.82867 22.6456 6.86342 22.6651 6.86342 22.689C6.86342 22.7128 6.90246 22.7324 6.95018 22.7324C6.9979 22.7324 7.03695 22.7519 7.03695 22.7757C7.03695 22.7996 7.07599 22.8191 7.12371 22.8191C7.17143 22.8191 7.21048 22.8386 7.21048 22.8625C7.21048 22.8864 7.24952 22.9059 7.29724 22.9059C7.34496 22.9059 7.38401 22.9254 7.38401 22.9493C7.38401 22.9731 7.42305 22.9926 7.47077 22.9926C7.51849 22.9926 7.55754 23.0122 7.55754 23.036C7.55754 23.0599 7.59658 23.0794 7.6443 23.0794C7.69202 23.0794 7.73107 23.0989 7.73107 23.1228C7.73107 23.1467 7.77011 23.1662 7.81783 23.1662C7.86555 23.1662 7.9046 23.1857 7.9046 23.2096C7.9046 23.2334 7.96316 23.2529 8.03474 23.2529C8.10632 23.2529 8.16489 23.2725 8.16489 23.2963C8.16489 23.3202 8.20393 23.3397 8.25165 23.3397C8.29938 23.3397 8.33842 23.3592 8.33842 23.3831C8.33842 23.4069 8.39699 23.4265 8.46857 23.4265C8.54015 23.4265 8.59871 23.446 8.59871 23.4699C8.59871 23.4937 8.63776 23.5132 8.68548 23.5132C8.7332 23.5132 8.77224 23.5328 8.77224 23.5566C8.77224 23.5805 8.83081 23.6 8.90239 23.6C8.97397 23.6 9.03254 23.6195 9.03254 23.6434C9.03254 23.6672 9.11063 23.6868 9.20607 23.6868C9.30151 23.6868 9.3796 23.7063 9.3796 23.7301C9.3796 23.754 9.43816 23.7735 9.50974 23.7735C9.58132 23.7735 9.63989 23.7931 9.63989 23.8169C9.63989 23.8408 9.71798 23.8603 9.81342 23.8603C9.90886 23.8603 9.98695 23.8798 9.98695 23.9037C9.98695 23.9275 10.0846 23.9471 10.2039 23.9471C10.3232 23.9471 10.4208 23.9666 10.4208 23.9904C10.4208 24.0143 10.5184 24.0338 10.6377 24.0338C10.757 24.0338 10.8546 24.0533 10.8546 24.0772C10.8546 24.1025 10.9992 24.1206 11.2017 24.1206C11.4041 24.1206 11.5487 24.1387 11.5487 24.164C11.5487 24.1919 11.9825 24.2074 12.7634 24.2074C13.5443 24.2074 13.9781 24.1919 13.9781 24.164C13.9781 24.1387 14.1227 24.1206 14.3252 24.1206C14.5276 24.1206 14.6722 24.1025 14.6722 24.0772C14.6722 24.0531 14.7879 24.0338 14.9325 24.0338C15.0771 24.0338 15.1928 24.0146 15.1928 23.9904C15.1928 23.9666 15.2709 23.9471 15.3664 23.9471C15.4618 23.9471 15.5399 23.9275 15.5399 23.9037C15.5399 23.8798 15.618 23.8603 15.7134 23.8603C15.8089 23.8603 15.8869 23.8408 15.8869 23.8169C15.8869 23.7931 15.965 23.7735 16.0605 23.7735C16.1559 23.7735 16.234 23.754 16.234 23.7301C16.234 23.7063 16.2926 23.6868 16.3642 23.6868C16.4357 23.6868 16.4943 23.6672 16.4943 23.6434C16.4943 23.6195 16.5529 23.6 16.6244 23.6C16.696 23.6 16.7546 23.5805 16.7546 23.5566C16.7546 23.5328 16.8132 23.5132 16.8847 23.5132C16.9563 23.5132 17.0149 23.4937 17.0149 23.4699C17.0149 23.446 17.0735 23.4265 17.145 23.4265C17.2166 23.4265 17.2752 23.4069 17.2752 23.3831C17.2752 23.3592 17.3142 23.3397 17.3619 23.3397C17.4097 23.3397 17.4487 23.3202 17.4487 23.2963C17.4487 23.2725 17.4878 23.2529 17.5355 23.2529C17.5832 23.2529 17.6222 23.2334 17.6222 23.2096C17.6222 23.1857 17.6808 23.1662 17.7524 23.1662C17.824 23.1662 17.8825 23.1467 17.8825 23.1228C17.8825 23.0989 17.9216 23.0794 17.9693 23.0794C18.017 23.0794 18.0561 23.0599 18.0561 23.036C18.0561 23.0122 18.0951 22.9926 18.1428 22.9926C18.1906 22.9926 18.2296 22.9731 18.2296 22.9493C18.2296 22.9254 18.2686 22.9059 18.3164 22.9059C18.3641 22.9059 18.4031 22.8864 18.4031 22.8625C18.4031 22.8386 18.4379 22.8191 18.4803 22.8191C18.5228 22.8191 18.5856 22.7801 18.62 22.7324C18.6544 22.6846 18.7173 22.6456 18.7598 22.6456C18.8022 22.6456 18.8369 22.6261 18.8369 22.6022C18.8369 22.5783 18.8717 22.5588 18.9141 22.5588C18.9566 22.5588 19.0195 22.5198 19.0539 22.4721C19.0883 22.4243 19.1511 22.3853 19.1936 22.3853C19.236 22.3853 19.2708 22.3658 19.2708 22.3419C19.2708 22.3181 19.3055 22.2985 19.3479 22.2985C19.3904 22.2985 19.4533 22.2595 19.4877 22.2118C19.5221 22.164 19.5771 22.125 19.61 22.125C19.6429 22.125 19.7245 22.0664 19.7914 21.9949C19.8582 21.9233 19.9363 21.8647 19.9649 21.8647C19.9935 21.8647 20.0716 21.8061 20.1384 21.7346C20.2053 21.663 20.2824 21.6044 20.3097 21.6044C20.3371 21.6044 20.4943 21.4678 20.659 21.3007C20.8237 21.1337 20.9793 20.9971 21.0047 20.9971C21.0645 20.9971 21.7002 20.362 21.7002 20.3022C21.7002 20.2772 21.7679 20.189 21.8506 20.1063L22.001 19.9559H40.2881H58.5752V19.4353C58.5752 19.1172 58.5583 18.9147 58.5318 18.9147C58.5079 18.9147 58.4884 18.8366 58.4884 18.7412C58.4884 18.6457 58.4689 18.5676 58.445 18.5676C58.4212 18.5676 58.4017 18.5091 58.4017 18.4375C58.4017 18.3659 58.3821 18.3074 58.3583 18.3074C58.3344 18.3074 58.3149 18.2683 58.3149 18.2206C58.3149 18.1729 58.2954 18.1338 58.2715 18.1338C58.2476 18.1338 58.2281 18.0991 58.2281 18.0566C58.2281 18.0142 58.1891 17.9513 58.1414 17.9169C58.0936 17.8825 58.0546 17.8289 58.0546 17.7977C58.0546 17.724 57.6835 17.3529 57.6098 17.3529C57.5786 17.3529 57.525 17.3139 57.4906 17.2662C57.4562 17.2185 57.3934 17.1794 57.3509 17.1794C57.3085 17.1794 57.2737 17.1599 57.2737 17.136C57.2737 17.1122 57.2151 17.0926 57.1436 17.0926C57.072 17.0926 57.0134 17.0731 57.0134 17.0493C57.0134 17.0204 50.9399 17.0059 38.8796 17.0059C21.5247 17.0059 20.7458 17.0092 20.7458 17.0831C20.7458 17.1255 20.7067 17.1884 20.659 17.2228C20.6113 17.2572 20.5722 17.3158 20.5722 17.3529C20.5722 17.3901 20.5332 17.4487 20.4855 17.4831C20.4378 17.5175 20.3987 17.5725 20.3987 17.6054C20.3987 17.6383 20.3401 17.7199 20.2686 17.7868C20.197 17.8536 20.1384 17.9309 20.1384 17.9584C20.1384 17.9859 20.0213 18.1235 19.8781 18.264C19.735 18.4045 19.6178 18.5406 19.6178 18.5664C19.6178 18.6275 19.2439 19.0015 19.1828 19.0015C19.1569 19.0015 19.0208 19.1186 18.8803 19.2618C18.7398 19.4049 18.6023 19.5221 18.5748 19.5221C18.5472 19.5221 18.47 19.5806 18.4031 19.6522C18.3363 19.7238 18.2546 19.7824 18.2218 19.7824C18.1889 19.7824 18.1339 19.8214 18.0994 19.8691C18.065 19.9168 18.0065 19.9559 17.9693 19.9559C17.9321 19.9559 17.8736 19.9949 17.8392 20.0426C17.8048 20.0904 17.7419 20.1294 17.6994 20.1294C17.657 20.1294 17.6222 20.1489 17.6222 20.1728C17.6222 20.1967 17.5875 20.2162 17.5451 20.2162C17.5026 20.2162 17.4397 20.2552 17.4053 20.3029C17.3709 20.3507 17.3081 20.3897 17.2656 20.3897C17.2232 20.3897 17.1884 20.4092 17.1884 20.4331C17.1884 20.4569 17.1494 20.4765 17.1017 20.4765C17.0539 20.4765 17.0149 20.496 17.0149 20.5199C17.0149 20.5437 16.9758 20.5632 16.9281 20.5632C16.8804 20.5632 16.8414 20.5828 16.8414 20.6066C16.8414 20.6305 16.8023 20.65 16.7546 20.65C16.7069 20.65 16.6678 20.6695 16.6678 20.6934C16.6678 20.7172 16.6093 20.7368 16.5377 20.7368C16.4661 20.7368 16.4075 20.7563 16.4075 20.7801C16.4075 20.804 16.3685 20.8235 16.3208 20.8235C16.2731 20.8235 16.234 20.8431 16.234 20.8669C16.234 20.8908 16.1754 20.9103 16.1039 20.9103C16.0323 20.9103 15.9737 20.9298 15.9737 20.9537C15.9737 20.9775 15.9347 20.9971 15.8869 20.9971C15.8392 20.9971 15.8002 21.0166 15.8002 21.0404C15.8002 21.0643 15.7221 21.0838 15.6267 21.0838C15.5312 21.0838 15.4531 21.1033 15.4531 21.1272C15.4531 21.1511 15.3946 21.1706 15.323 21.1706C15.2514 21.1706 15.1928 21.1901 15.1928 21.214C15.1928 21.2378 15.1147 21.2574 15.0193 21.2574C14.9239 21.2574 14.8458 21.2769 14.8458 21.3007C14.8458 21.3246 14.7482 21.3441 14.6289 21.3441C14.5096 21.3441 14.4119 21.3636 14.4119 21.3875C14.4119 21.4123 14.2818 21.4309 14.1083 21.4309C13.9347 21.4309 13.8046 21.4495 13.8046 21.4743C13.8046 21.5019 13.4431 21.5176 12.8068 21.5176C12.1705 21.5176 11.809 21.5019 11.809 21.4743C11.809 21.4495 11.6789 21.4309 11.5053 21.4309C11.3318 21.4309 11.2017 21.4123 11.2017 21.3875C11.2017 21.3636 11.104 21.3441 10.9847 21.3441C10.8654 21.3441 10.7678 21.3246 10.7678 21.3007C10.7678 21.2769 10.6897 21.2574 10.5943 21.2574C10.4989 21.2574 10.4208 21.2378 10.4208 21.214C10.4208 21.1901 10.3427 21.1706 10.2472 21.1706C10.1518 21.1706 10.0737 21.1511 10.0737 21.1272C10.0737 21.1033 10.0151 21.0838 9.94357 21.0838C9.87199 21.0838 9.81342 21.0643 9.81342 21.0404C9.81342 21.0166 9.75485 20.9971 9.68327 20.9971C9.61169 20.9971 9.55313 20.9775 9.55313 20.9537C9.55313 20.9298 9.51408 20.9103 9.46636 20.9103C9.41864 20.9103 9.3796 20.8908 9.3796 20.8669C9.3796 20.8431 9.32103 20.8235 9.24945 20.8235C9.17787 20.8235 9.1193 20.804 9.1193 20.7801C9.1193 20.7563 9.08026 20.7368 9.03254 20.7368C8.98482 20.7368 8.94577 20.7172 8.94577 20.6934C8.94577 20.6695 8.90673 20.65 8.85901 20.65C8.81129 20.65 8.77224 20.6305 8.77224 20.6066C8.77224 20.5828 8.7332 20.5632 8.68548 20.5632C8.63776 20.5632 8.59871 20.5437 8.59871 20.5199C8.59871 20.496 8.55967 20.4765 8.51195 20.4765C8.46423 20.4765 8.42518 20.4569 8.42518 20.4331C8.42518 20.4092 8.38614 20.3897 8.33842 20.3897C8.2907 20.3897 8.25165 20.3702 8.25165 20.3463C8.25165 20.3225 8.21261 20.3029 8.16489 20.3029C8.11717 20.3029 8.07813 20.2834 8.07813 20.2596C8.07813 20.2357 8.04338 20.2162 8.00095 20.2162C7.95848 20.2162 7.89562 20.1771 7.86121 20.1294C7.82681 20.0817 7.76825 20.0426 7.73107 20.0426C7.69389 20.0426 7.63532 20.0036 7.60092 19.9559C7.56652 19.9082 7.51146 19.8691 7.47858 19.8691C7.44574 19.8691 7.3641 19.8106 7.29724 19.739C7.23039 19.6674 7.1523 19.6088 7.12371 19.6088C7.09512 19.6088 7.01704 19.5503 6.95018 19.4787C6.88333 19.4071 6.80698 19.3485 6.78052 19.3485C6.71826 19.3485 5.64871 18.2798 5.64871 18.2176C5.64871 18.1917 5.57063 18.0954 5.47518 18.0037C5.37974 17.912 5.30165 17.814 5.30165 17.7859C5.30165 17.7578 5.24309 17.6801 5.17151 17.6132C5.09993 17.5464 5.04136 17.4647 5.04136 17.4319C5.04136 17.399 5.00232 17.344 4.9546 17.3096C4.90688 17.2752 4.86783 17.2123 4.86783 17.1698C4.86783 17.1274 4.84831 17.0926 4.82445 17.0926C4.80059 17.0926 4.78107 17.0579 4.78107 17.0155C4.78107 16.973 4.74202 16.9101 4.6943 16.8757C4.64658 16.8413 4.60754 16.7785 4.60754 16.736C4.60754 16.6936 4.58801 16.6588 4.56415 16.6588C4.54029 16.6588 4.52077 16.6198 4.52077 16.5721C4.52077 16.5243 4.50125 16.4853 4.47739 16.4853C4.45353 16.4853 4.43401 16.4462 4.43401 16.3985C4.43401 16.3508 4.41449 16.3118 4.39063 16.3118C4.36676 16.3118 4.34724 16.2727 4.34724 16.225C4.34724 16.1773 4.32772 16.1382 4.30386 16.1382C4.28 16.1382 4.26048 16.0992 4.26048 16.0515C4.26048 16.0037 4.24096 15.9647 4.2171 15.9647C4.19324 15.9647 4.17371 15.9257 4.17371 15.8779C4.17371 15.8302 4.15419 15.7912 4.13033 15.7912C4.10647 15.7912 4.08695 15.7326 4.08695 15.661C4.08695 15.5894 4.06743 15.5309 4.04357 15.5309C4.01971 15.5309 4.00018 15.4918 4.00018 15.4441C4.00018 15.3964 3.98066 15.3574 3.9568 15.3574C3.93294 15.3574 3.91342 15.2988 3.91342 15.2272C3.91342 15.1556 3.8939 15.0971 3.87004 15.0971C3.84618 15.0971 3.82665 15.0385 3.82665 14.9669C3.82665 14.8953 3.80713 14.8368 3.78327 14.8368C3.75941 14.8368 3.73989 14.7587 3.73989 14.6632C3.73989 14.5678 3.72037 14.4897 3.69651 14.4897C3.67265 14.4897 3.65313 14.4116 3.65313 14.3162C3.65313 14.2207 3.6336 14.1426 3.60974 14.1426C3.58588 14.1426 3.56636 14.045 3.56636 13.9257C3.56636 13.8064 3.54684 13.7088 3.52298 13.7088C3.49821 13.7088 3.4796 13.5787 3.4796 13.4051C3.4796 13.2316 3.46098 13.1015 3.43621 13.1015C3.40862 13.1015 3.39283 12.7544 3.39283 12.1471C3.39283 11.5397 3.40862 11.1926 3.43621 11.1926C3.46151 11.1926 3.4796 11.0481 3.4796 10.8456C3.4796 10.6431 3.49769 10.4985 3.52298 10.4985C3.54684 10.4985 3.56636 10.4009 3.56636 10.2816C3.56636 10.1623 3.58588 10.0647 3.60974 10.0647C3.6336 10.0647 3.65313 9.98662 3.65313 9.89118C3.65313 9.79573 3.67265 9.71765 3.69651 9.71765C3.72037 9.71765 3.73989 9.65908 3.73989 9.5875C3.73989 9.51592 3.75941 9.45735 3.78327 9.45735C3.80713 9.45735 3.82665 9.39879 3.82665 9.32721C3.82665 9.25562 3.84618 9.19706 3.87004 9.19706C3.8939 9.19706 3.91342 9.13849 3.91342 9.06691C3.91342 8.99533 3.93294 8.93676 3.9568 8.93676C3.98066 8.93676 4.00018 8.8782 4.00018 8.80662C4.00018 8.73504 4.01971 8.67647 4.04357 8.67647C4.06743 8.67647 4.08695 8.63743 4.08695 8.58971C4.08695 8.54198 4.10647 8.50294 4.13033 8.50294C4.15419 8.50294 4.17371 8.44437 4.17371 8.37279C4.17371 8.30121 4.19324 8.24265 4.2171 8.24265C4.24096 8.24265 4.26048 8.2036 4.26048 8.15588C4.26048 8.10816 4.28 8.06912 4.30386 8.06912C4.32772 8.06912 4.34724 8.03007 4.34724 7.98235C4.34724 7.93463 4.36676 7.89559 4.39063 7.89559C4.41449 7.89559 4.43401 7.85654 4.43401 7.80882C4.43401 7.7611 4.45353 7.72206 4.47739 7.72206C4.50125 7.72206 4.52077 7.68731 4.52077 7.64488C4.52077 7.60241 4.55982 7.53955 4.60754 7.50515C4.65526 7.47074 4.6943 7.40788 4.6943 7.36541C4.6943 7.32298 4.71382 7.28823 4.73768 7.28823C4.76154 7.28823 4.78107 7.25349 4.78107 7.21106C4.78107 7.16859 4.82011 7.10573 4.86783 7.07132C4.91555 7.03692 4.9546 6.97835 4.9546 6.94118C4.9546 6.904 4.99364 6.84543 5.04136 6.81103C5.08908 6.77663 5.12813 6.72157 5.12813 6.68869C5.12813 6.65585 5.18669 6.5742 5.25827 6.50735C5.32985 6.4405 5.38842 6.36337 5.38842 6.33604C5.38842 6.30866 5.52507 6.15149 5.6921 5.98676C5.85912 5.82204 5.99577 5.66617 5.99577 5.64036C5.99577 5.57914 6.28253 5.29265 6.34379 5.29265C6.36977 5.29265 6.50599 5.17551 6.64651 5.03235C6.78702 4.88919 6.92454 4.77206 6.95205 4.77206C6.9796 4.77206 7.05686 4.71349 7.12371 4.64191C7.19057 4.57033 7.27221 4.51176 7.30505 4.51176C7.33794 4.51176 7.39299 4.47272 7.42739 4.425C7.46179 4.37728 7.52036 4.33824 7.55754 4.33824C7.59472 4.33824 7.65328 4.29919 7.68768 4.25147C7.72209 4.20375 7.78065 4.16471 7.81783 4.16471C7.85501 4.16471 7.91358 4.12566 7.94798 4.07794C7.98238 4.03022 8.04524 3.99118 8.08771 3.99118C8.13014 3.99118 8.16489 3.97165 8.16489 3.94779C8.16489 3.92393 8.20393 3.90441 8.25165 3.90441C8.29938 3.90441 8.33842 3.88489 8.33842 3.86103C8.33842 3.83717 8.37746 3.81765 8.42518 3.81765C8.4729 3.81765 8.51195 3.79812 8.51195 3.77426C8.51195 3.7504 8.55099 3.73088 8.59871 3.73088C8.64643 3.73088 8.68548 3.71136 8.68548 3.6875C8.68548 3.66364 8.72452 3.64412 8.77224 3.64412C8.81996 3.64412 8.85901 3.6246 8.85901 3.60074C8.85901 3.57687 8.89805 3.55735 8.94577 3.55735C8.99349 3.55735 9.03254 3.53783 9.03254 3.51397C9.03254 3.49011 9.07158 3.47059 9.1193 3.47059C9.16702 3.47059 9.20607 3.45107 9.20607 3.42721C9.20607 3.40335 9.26463 3.38382 9.33621 3.38382C9.40779 3.38382 9.46636 3.3643 9.46636 3.34044C9.46636 3.31658 9.52493 3.29706 9.59651 3.29706C9.66809 3.29706 9.72665 3.27754 9.72665 3.25368C9.72665 3.22982 9.78522 3.21029 9.8568 3.21029C9.92838 3.21029 9.98695 3.19077 9.98695 3.16691C9.98695 3.14305 10.0455 3.12353 10.1171 3.12353C10.1887 3.12353 10.2472 3.10401 10.2472 3.08015C10.2472 3.05629 10.3253 3.03676 10.4208 3.03676C10.5162 3.03676 10.5943 3.01724 10.5943 2.99338C10.5943 2.96952 10.6724 2.95 10.7678 2.95C10.8633 2.95 10.9414 2.93048 10.9414 2.90662C10.9414 2.8825 11.0571 2.86324 11.2017 2.86324C11.3462 2.86324 11.4619 2.84397 11.4619 2.81985C11.4619 2.79382 11.6355 2.77647 11.8958 2.77647C12.1561 2.77647 12.3296 2.75912 12.3296 2.73309C12.3296 2.70706 12.5031 2.68971 12.7634 2.68971C13.0237 2.68971 13.1972 2.70706 13.1972 2.73309C13.1972 2.75938 13.3852 2.77647 13.6744 2.77647C13.9637 2.77647 14.1517 2.79356 14.1517 2.81985C14.1517 2.84371 14.2493 2.86324 14.3686 2.86324C14.4879 2.86324 14.5855 2.88276 14.5855 2.90662C14.5855 2.93048 14.6831 2.95 14.8024 2.95C14.9217 2.95 15.0193 2.96952 15.0193 2.99338C15.0193 3.01724 15.0974 3.03676 15.1928 3.03676C15.2883 3.03676 15.3664 3.05629 15.3664 3.08015C15.3664 3.10401 15.4249 3.12353 15.4965 3.12353C15.5681 3.12353 15.6267 3.14305 15.6267 3.16691C15.6267 3.19077 15.6852 3.21029 15.7568 3.21029C15.8284 3.21029 15.8869 3.22982 15.8869 3.25368C15.8869 3.27754 15.9455 3.29706 16.0171 3.29706C16.0887 3.29706 16.1472 3.31658 16.1472 3.34044C16.1472 3.3643 16.1863 3.38382 16.234 3.38382C16.2817 3.38382 16.3208 3.40335 16.3208 3.42721C16.3208 3.45107 16.3793 3.47059 16.4509 3.47059C16.5225 3.47059 16.5811 3.49011 16.5811 3.51397C16.5811 3.53783 16.6201 3.55735 16.6678 3.55735C16.7156 3.55735 16.7546 3.57687 16.7546 3.60074C16.7546 3.6246 16.7936 3.64412 16.8414 3.64412C16.8891 3.64412 16.9281 3.66364 16.9281 3.6875C16.9281 3.71136 16.9672 3.73088 17.0149 3.73088C17.0626 3.73088 17.1017 3.7504 17.1017 3.77426C17.1017 3.79812 17.1364 3.81765 17.1788 3.81765C17.2213 3.81765 17.2842 3.85669 17.3186 3.90441C17.353 3.95213 17.4158 3.99118 17.4583 3.99118C17.5007 3.99118 17.5355 4.0107 17.5355 4.03456C17.5355 4.05842 17.5702 4.07794 17.6127 4.07794C17.6551 4.07794 17.718 4.11699 17.7524 4.16471C17.7868 4.21243 17.8454 4.25147 17.8825 4.25147C17.9197 4.25147 17.9783 4.29051 18.0127 4.33824C18.0471 4.38596 18.1057 4.425 18.1428 4.425C18.18 4.425 18.2386 4.46404 18.273 4.51176C18.3074 4.55949 18.362 4.59853 18.3944 4.59853C18.4268 4.59853 18.5283 4.67662 18.62 4.77206C18.7117 4.8675 18.808 4.94559 18.834 4.94559C18.8956 4.94559 19.9649 6.01488 19.9649 6.07652C19.9649 6.10247 20.043 6.19873 20.1384 6.29044C20.2339 6.38215 20.3119 6.47963 20.3119 6.50705C20.3119 6.67355 20.3839 6.68088 22.0225 6.68088C23.0512 6.68088 23.609 6.66561 23.609 6.6375C23.609 6.61364 23.5895 6.59412 23.5656 6.59412C23.5418 6.59412 23.5222 6.55937 23.5222 6.51694C23.5222 6.47447 23.4832 6.41161 23.4355 6.37721C23.3878 6.3428 23.3487 6.27994 23.3487 6.23747C23.3487 6.19504 23.3292 6.16029 23.3053 6.16029C23.2815 6.16029 23.2619 6.12125 23.2619 6.07353C23.2619 6.02581 23.2424 5.98676 23.2186 5.98676C23.1947 5.98676 23.1752 5.95201 23.1752 5.90959C23.1752 5.86712 23.1361 5.80425 23.0884 5.76985C23.0407 5.73545 23.0017 5.67688 23.0017 5.63971C23.0017 5.60253 22.9626 5.54396 22.9149 5.50956C22.8672 5.47516 22.8281 5.41659 22.8281 5.37941C22.8281 5.34223 22.7891 5.28367 22.7414 5.24926C22.6936 5.21486 22.6546 5.15981 22.6546 5.12693C22.6546 5.09409 22.596 5.01244 22.5244 4.94559C22.4529 4.87874 22.3943 4.80104 22.3943 4.77293C22.3943 4.74486 22.3162 4.64686 22.2208 4.55515C22.1253 4.46344 22.0472 4.36721 22.0472 4.34132C22.0472 4.2798 20.6307 2.86324 20.5692 2.86324C20.5433 2.86324 20.447 2.78515 20.3553 2.68971C20.2636 2.59426 20.1656 2.51618 20.1376 2.51618C20.1094 2.51618 20.0317 2.45761 19.9649 2.38603C19.898 2.31445 19.8164 2.25588 19.7836 2.25588C19.7507 2.25588 19.6956 2.21684 19.6612 2.16912C19.6268 2.1214 19.5682 2.08235 19.5311 2.08235C19.4939 2.08235 19.4353 2.04331 19.4009 1.99559C19.3665 1.94787 19.308 1.90882 19.2708 1.90882C19.2336 1.90882 19.175 1.86978 19.1406 1.82206C19.1062 1.77434 19.0434 1.73529 19.0009 1.73529C18.9585 1.73529 18.9237 1.71577 18.9237 1.69191C18.9237 1.66805 18.8847 1.64853 18.8369 1.64853C18.7892 1.64853 18.7502 1.62901 18.7502 1.60515C18.7502 1.58129 18.7154 1.56176 18.673 1.56176C18.6305 1.56176 18.5677 1.52272 18.5333 1.475C18.4989 1.42728 18.436 1.38824 18.3935 1.38824C18.3511 1.38824 18.3164 1.36871 18.3164 1.34485C18.3164 1.32099 18.2773 1.30147 18.2296 1.30147C18.1819 1.30147 18.1428 1.28195 18.1428 1.25809C18.1428 1.23423 18.1038 1.21471 18.0561 1.21471C18.0083 1.21471 17.9693 1.19518 17.9693 1.17132C17.9693 1.14746 17.9107 1.12794 17.8392 1.12794C17.7676 1.12794 17.709 1.10842 17.709 1.08456C17.709 1.0607 17.67 1.04118 17.6222 1.04118C17.5745 1.04118 17.5355 1.02165 17.5355 0.997794C17.5355 0.973934 17.4964 0.954412 17.4487 0.954412C17.401 0.954412 17.3619 0.93489 17.3619 0.911029C17.3619 0.887169 17.3034 0.867647 17.2318 0.867647C17.1602 0.867647 17.1017 0.848125 17.1017 0.824265C17.1017 0.800404 17.0626 0.780882 17.0149 0.780882C16.9672 0.780882 16.9281 0.76136 16.9281 0.7375C16.9281 0.71364 16.8696 0.694118 16.798 0.694118C16.7264 0.694118 16.6678 0.674596 16.6678 0.650735C16.6678 0.626875 16.6093 0.607353 16.5377 0.607353C16.4661 0.607353 16.4075 0.587831 16.4075 0.563971C16.4075 0.54011 16.3294 0.520588 16.234 0.520588C16.1386 0.520588 16.0605 0.501066 16.0605 0.477206C16.0605 0.453346 15.9824 0.433824 15.8869 0.433824C15.7915 0.433824 15.7134 0.414301 15.7134 0.390441C15.7134 0.366581 15.6353 0.347059 15.5399 0.347059C15.4444 0.347059 15.3664 0.327537 15.3664 0.303676C15.3664 0.279816 15.2688 0.260294 15.1494 0.260294C15.0301 0.260294 14.9325 0.240772 14.9325 0.216912C14.9325 0.192791 14.8168 0.173529 14.6722 0.173529C14.5276 0.173529 14.4119 0.154268 14.4119 0.130147C14.4119 0.10364 14.2095 0.0867647 13.8914 0.0867647C13.5732 0.0867647 13.3708 0.069889 13.3708 0.0433824C13.3708 0.0165287 13.1394 0 12.7634 0C12.3874 0 12.1561 0.0165287 12.1561 0.0433824ZM20.5722 7.67868C20.5722 7.70254 20.5918 7.72206 20.6156 7.72206C20.6395 7.72206 20.659 7.80015 20.659 7.89559C20.659 7.99103 20.6785 8.06912 20.7024 8.06912C20.7263 8.06912 20.7458 8.12768 20.7458 8.19926C20.7458 8.27085 20.7653 8.32941 20.7892 8.32941C20.813 8.32941 20.8325 8.36846 20.8325 8.41618C20.8325 8.4639 20.8521 8.50294 20.8759 8.50294C20.8998 8.50294 20.9193 8.54198 20.9193 8.58971C20.9193 8.63743 20.9388 8.67647 20.9627 8.67647C20.9865 8.67647 21.0061 8.71551 21.0061 8.76323C21.0061 8.81096 21.0256 8.85 21.0494 8.85C21.0733 8.85 21.0928 8.88475 21.0928 8.92718C21.0928 8.96965 21.1319 9.03251 21.1796 9.06691C21.2273 9.10131 21.2664 9.15593 21.2664 9.18834C21.2664 9.22074 21.3444 9.32226 21.4399 9.41397C21.5353 9.50568 21.6134 9.60316 21.6134 9.63058C21.6134 9.69474 21.7227 9.80441 21.7866 9.80441C21.8138 9.80441 21.931 9.90202 22.0472 10.0213C22.1635 10.1406 22.2848 10.2382 22.3168 10.2382C22.3489 10.2382 22.4033 10.2773 22.4377 10.325C22.4721 10.3727 22.5349 10.4118 22.5774 10.4118C22.6198 10.4118 22.6546 10.4313 22.6546 10.4551C22.6546 10.479 22.6936 10.4985 22.7414 10.4985C22.7891 10.4985 22.8281 10.5181 22.8281 10.5419C22.8281 10.5658 22.8672 10.5853 22.9149 10.5853C22.9626 10.5853 23.0017 10.6048 23.0017 10.6287C23.0017 10.6525 23.0602 10.6721 23.1318 10.6721C23.2034 10.6721 23.2619 10.6916 23.2619 10.7154C23.2619 10.7393 23.3205 10.7588 23.3921 10.7588C23.4637 10.7588 23.5222 10.7783 23.5222 10.8022C23.5222 10.8261 23.6199 10.8456 23.7392 10.8456C23.8585 10.8456 23.9561 10.8651 23.9561 10.889C23.9561 10.9174 24.8526 10.9324 26.559 10.9324H29.1619V10.325C29.1619 9.949 29.1454 9.71765 29.1186 9.71765C29.0947 9.71765 29.0752 9.65908 29.0752 9.5875C29.0752 9.51592 29.0557 9.45735 29.0318 9.45735C29.0079 9.45735 28.9884 9.39879 28.9884 9.32721C28.9884 9.25562 28.9689 9.19706 28.945 9.19706C28.9212 9.19706 28.9017 9.16231 28.9017 9.11988C28.9017 9.07741 28.8626 9.01455 28.8149 8.98015C28.7672 8.94574 28.7281 8.89069 28.7281 8.85781C28.7281 8.82497 28.6696 8.74332 28.598 8.67647C28.5264 8.60962 28.4678 8.53205 28.4678 8.50411C28.4678 8.4386 28.3586 8.32941 28.2931 8.32941C28.2652 8.32941 28.1876 8.27085 28.1208 8.19926C28.0539 8.12768 27.9723 8.06912 27.9394 8.06912C27.9066 8.06912 27.8515 8.03007 27.8171 7.98235C27.7827 7.93463 27.7198 7.89559 27.6774 7.89559C27.6349 7.89559 27.6002 7.87607 27.6002 7.85221C27.6002 7.82835 27.5416 7.80882 27.47 7.80882C27.3985 7.80882 27.3399 7.7893 27.3399 7.76544C27.3399 7.74158 27.2813 7.72206 27.2097 7.72206C27.1382 7.72206 27.0796 7.70254 27.0796 7.67868C27.0796 7.65013 25.9661 7.63529 23.8259 7.63529C21.6857 7.63529 20.5722 7.65013 20.5722 7.67868ZM54.9311 11.0625V11.6265H55.7987H56.6664V13.839V16.0515H57.3171H57.9678V13.839V11.6265H58.8355H59.7031V11.0625V10.4985H57.3171H54.9311V11.0625ZM31.7649 10.6721C31.7649 10.7198 31.7454 10.7588 31.7215 10.7588C31.6976 10.7588 31.6781 10.8174 31.6781 10.889C31.6781 10.9606 31.6586 11.0191 31.6347 11.0191C31.6109 11.0191 31.5914 11.0777 31.5914 11.1493C31.5914 11.2208 31.5718 11.2794 31.548 11.2794C31.5241 11.2794 31.5046 11.338 31.5046 11.4096C31.5046 11.4811 31.4851 11.5397 31.4612 11.5397C31.4374 11.5397 31.4178 11.5983 31.4178 11.6699C31.4178 11.7414 31.3983 11.8 31.3744 11.8C31.3506 11.8 31.3311 11.8586 31.3311 11.9301C31.3311 12.0017 31.3115 12.0603 31.2877 12.0603C31.2638 12.0603 31.2443 12.0993 31.2443 12.1471C31.2443 12.1948 31.2248 12.2338 31.2009 12.2338C31.1771 12.2338 31.1575 12.2924 31.1575 12.364C31.1575 12.4356 31.138 12.4941 31.1142 12.4941C31.0903 12.4941 31.0708 12.5527 31.0708 12.6243C31.0708 12.6958 31.0513 12.7544 31.0274 12.7544C31.0035 12.7544 30.984 12.813 30.984 12.8846C30.984 12.9561 30.9645 13.0147 30.9406 13.0147C30.9168 13.0147 30.8972 13.0733 30.8972 13.1449C30.8972 13.2164 30.8777 13.275 30.8539 13.275C30.83 13.275 30.8105 13.3336 30.8105 13.4051C30.8105 13.4767 30.791 13.5353 30.7671 13.5353C30.7432 13.5353 30.7237 13.5939 30.7237 13.6654C30.7237 13.737 30.7042 13.7956 30.6803 13.7956C30.6565 13.7956 30.6369 13.8542 30.6369 13.9257C30.6369 13.9973 30.6174 14.0559 30.5936 14.0559C30.5697 14.0559 30.5502 14.1144 30.5502 14.186C30.5502 14.2576 30.5307 14.3162 30.5068 14.3162C30.4829 14.3162 30.4634 14.3747 30.4634 14.4463C30.4634 14.5179 30.4439 14.5765 30.42 14.5765C30.3962 14.5765 30.3767 14.635 30.3767 14.7066C30.3767 14.7782 30.3571 14.8368 30.3333 14.8368C30.3094 14.8368 30.2899 14.8953 30.2899 14.9669C30.2899 15.0385 30.2704 15.0971 30.2465 15.0971C30.2226 15.0971 30.2031 15.1556 30.2031 15.2272C30.2031 15.2988 30.1836 15.3574 30.1597 15.3574C30.1359 15.3574 30.1164 15.4159 30.1164 15.4875V15.6176H30.7237H31.3311V15.4875C31.3311 15.4159 31.3506 15.3574 31.3744 15.3574C31.3983 15.3574 31.4178 15.2988 31.4178 15.2272C31.4178 15.1556 31.4374 15.0971 31.4612 15.0971C31.4851 15.0971 31.5046 15.019 31.5046 14.9235C31.5046 14.8281 31.5241 14.75 31.548 14.75C31.5718 14.75 31.5914 14.711 31.5914 14.6632C31.5914 14.5795 31.6203 14.5765 32.4156 14.5765H33.2399V14.7066C33.2399 14.7782 33.2594 14.8368 33.2833 14.8368C33.3071 14.8368 33.3267 14.9149 33.3267 15.0103C33.3267 15.1057 33.3462 15.1838 33.37 15.1838C33.3939 15.1838 33.4134 15.2424 33.4134 15.314C33.4134 15.3856 33.4329 15.4441 33.4568 15.4441C33.4807 15.4441 33.5002 15.4832 33.5002 15.5309C33.5002 15.6135 33.5291 15.6176 34.1075 15.6176C34.686 15.6176 34.7149 15.6135 34.7149 15.5309C34.7149 15.4832 34.6954 15.4441 34.6715 15.4441C34.6476 15.4441 34.6281 15.3856 34.6281 15.314C34.6281 15.2424 34.6086 15.1838 34.5847 15.1838C34.5609 15.1838 34.5414 15.1253 34.5414 15.0537C34.5414 14.9821 34.5218 14.9235 34.498 14.9235C34.4741 14.9235 34.4546 14.865 34.4546 14.7934C34.4546 14.7218 34.4351 14.6632 34.4112 14.6632C34.3874 14.6632 34.3678 14.6047 34.3678 14.5331C34.3678 14.4615 34.3483 14.4029 34.3244 14.4029C34.3006 14.4029 34.2811 14.3444 34.2811 14.2728C34.2811 14.2012 34.2615 14.1426 34.2377 14.1426C34.2138 14.1426 34.1943 14.0841 34.1943 14.0125C34.1943 13.9409 34.1748 13.8824 34.1509 13.8824C34.1271 13.8824 34.1075 13.8238 34.1075 13.7522C34.1075 13.6806 34.088 13.6221 34.0642 13.6221C34.0403 13.6221 34.0208 13.5635 34.0208 13.4919C34.0208 13.4203 34.0013 13.3618 33.9774 13.3618C33.9535 13.3618 33.934 13.3032 33.934 13.2316C33.934 13.16 33.9145 13.1015 33.8906 13.1015C33.8668 13.1015 33.8472 13.0429 33.8472 12.9713C33.8472 12.8997 33.8277 12.8412 33.8039 12.8412C33.78 12.8412 33.7605 12.7826 33.7605 12.711C33.7605 12.6394 33.741 12.5809 33.7171 12.5809C33.6932 12.5809 33.6737 12.5223 33.6737 12.4507C33.6737 12.3792 33.6542 12.3206 33.6303 12.3206C33.6065 12.3206 33.5869 12.262 33.5869 12.1904C33.5869 12.1189 33.5674 12.0603 33.5436 12.0603C33.5197 12.0603 33.5002 12.0017 33.5002 11.9301C33.5002 11.8586 33.4807 11.8 33.4568 11.8C33.4329 11.8 33.4134 11.7414 33.4134 11.6699C33.4134 11.5983 33.3939 11.5397 33.37 11.5397C33.3462 11.5397 33.3267 11.5007 33.3267 11.4529C33.3267 11.4052 33.3071 11.3662 33.2833 11.3662C33.2594 11.3662 33.2399 11.3076 33.2399 11.236C33.2399 11.1644 33.2204 11.1059 33.1965 11.1059C33.1726 11.1059 33.1531 11.0473 33.1531 10.9757C33.1531 10.9042 33.1336 10.8456 33.1097 10.8456C33.0859 10.8456 33.0664 10.787 33.0664 10.7154V10.5853H32.4156C31.7938 10.5853 31.7649 10.5892 31.7649 10.6721ZM36.7972 10.6287C36.7972 10.6525 36.7387 10.6721 36.6671 10.6721C36.5955 10.6721 36.5369 10.6916 36.5369 10.7154C36.5369 10.7393 36.4827 10.7588 36.4164 10.7588C36.3456 10.7588 36.27 10.7947 36.2333 10.8456C36.1989 10.8933 36.1403 10.9324 36.1031 10.9324C36.0659 10.9324 36.0074 10.9714 35.973 11.0191C35.9386 11.0668 35.8848 11.1059 35.8535 11.1059C35.7838 11.1059 35.4958 11.3877 35.4958 11.4558C35.4958 11.4828 35.4372 11.5596 35.3656 11.6265C35.294 11.6933 35.2355 11.7793 35.2355 11.8174C35.2355 11.8556 35.216 11.8868 35.1921 11.8868C35.1682 11.8868 35.1487 11.9258 35.1487 11.9735C35.1487 12.0212 35.1292 12.0603 35.1053 12.0603C35.0815 12.0603 35.0619 12.1189 35.0619 12.1904C35.0619 12.262 35.0424 12.3206 35.0186 12.3206C34.9944 12.3206 34.9752 12.4363 34.9752 12.5809C34.9752 12.7255 34.9559 12.8412 34.9318 12.8412C34.907 12.8412 34.8884 12.9713 34.8884 13.1449C34.8884 13.3184 34.907 13.4485 34.9318 13.4485C34.9557 13.4485 34.9752 13.5461 34.9752 13.6654C34.9752 13.7847 34.9947 13.8824 35.0186 13.8824C35.0424 13.8824 35.0619 13.9409 35.0619 14.0125C35.0619 14.0841 35.0815 14.1426 35.1053 14.1426C35.1292 14.1426 35.1487 14.2012 35.1487 14.2728C35.1487 14.3444 35.1682 14.4029 35.1921 14.4029C35.216 14.4029 35.2355 14.4341 35.2355 14.4723C35.2355 14.5104 35.294 14.5964 35.3656 14.6632C35.4372 14.7301 35.4958 14.8069 35.4958 14.8339C35.4958 14.9021 35.7838 15.1838 35.8535 15.1838C35.8848 15.1838 35.9386 15.2229 35.973 15.2706C36.0074 15.3183 36.0702 15.3574 36.1127 15.3574C36.1551 15.3574 36.1899 15.3769 36.1899 15.4007C36.1899 15.4246 36.2289 15.4441 36.2767 15.4441C36.3244 15.4441 36.3634 15.4636 36.3634 15.4875C36.3634 15.5114 36.4025 15.5309 36.4502 15.5309C36.4979 15.5309 36.5369 15.5504 36.5369 15.5743C36.5369 15.5981 36.615 15.6176 36.7105 15.6176C36.8059 15.6176 36.884 15.6372 36.884 15.661C36.884 15.688 37.1299 15.7044 37.5347 15.7044C37.9396 15.7044 38.1855 15.688 38.1855 15.661C38.1855 15.6372 38.2636 15.6176 38.359 15.6176C38.4544 15.6176 38.5325 15.5981 38.5325 15.5743C38.5325 15.5504 38.5716 15.5309 38.6193 15.5309C38.667 15.5309 38.7061 15.5114 38.7061 15.4875C38.7061 15.4636 38.7451 15.4441 38.7928 15.4441C38.8406 15.4441 38.8796 15.4246 38.8796 15.4007C38.8796 15.3769 38.9186 15.3574 38.9664 15.3574C39.0141 15.3574 39.0531 15.3378 39.0531 15.314C39.0531 15.2901 39.0829 15.2706 39.1193 15.2706C39.1558 15.2706 39.2746 15.1816 39.3833 15.0728L39.5811 14.875L39.4906 14.7966C39.4409 14.7534 39.4002 14.6906 39.4002 14.6569C39.4002 14.6232 39.3611 14.5675 39.3134 14.5331C39.2657 14.4987 39.2267 14.4401 39.2267 14.4029C39.2267 14.3658 39.1876 14.3072 39.1399 14.2728C39.0922 14.2384 39.0531 14.1755 39.0531 14.1331C39.0531 14.0281 38.9143 14.0342 38.8362 14.1426C38.8018 14.1904 38.7432 14.2294 38.7061 14.2294C38.6689 14.2294 38.6103 14.2685 38.5759 14.3162C38.5415 14.3639 38.4787 14.4029 38.4362 14.4029C38.3938 14.4029 38.359 14.4225 38.359 14.4463C38.359 14.4702 38.3004 14.4897 38.2289 14.4897C38.1573 14.4897 38.0987 14.5092 38.0987 14.5331C38.0987 14.5569 38.0401 14.5765 37.9686 14.5765C37.897 14.5765 37.8384 14.596 37.8384 14.6199C37.8384 14.6437 37.7408 14.6632 37.6215 14.6632C37.5022 14.6632 37.4046 14.6437 37.4046 14.6199C37.4046 14.596 37.3265 14.5765 37.2311 14.5765C37.1356 14.5765 37.0575 14.5569 37.0575 14.5331C37.0575 14.5092 37.0185 14.4897 36.9708 14.4897C36.9231 14.4897 36.884 14.4702 36.884 14.4463C36.884 14.4225 36.8541 14.4029 36.8175 14.4029C36.7311 14.4029 36.4502 14.122 36.4502 14.0356C36.4502 13.9991 36.4307 13.9691 36.4068 13.9691C36.3829 13.9691 36.3634 13.9301 36.3634 13.8824C36.3634 13.8346 36.3439 13.7956 36.32 13.7956C36.2962 13.7956 36.2767 13.7565 36.2767 13.7088C36.2767 13.6611 36.2571 13.6221 36.2333 13.6221C36.2068 13.6221 36.1899 13.4196 36.1899 13.1015C36.1899 12.7833 36.2068 12.5809 36.2333 12.5809C36.2571 12.5809 36.2767 12.5418 36.2767 12.4941C36.2767 12.4464 36.2962 12.4074 36.32 12.4074C36.3439 12.4074 36.3634 12.3683 36.3634 12.3206C36.3634 12.2729 36.3829 12.2338 36.4068 12.2338C36.4307 12.2338 36.4502 12.2032 36.4502 12.1657C36.4502 12.082 36.5533 11.9735 36.6327 11.9735C36.665 11.9735 36.7195 11.9345 36.7539 11.8868C36.7883 11.839 36.8511 11.8 36.8936 11.8C36.936 11.8 36.9708 11.7805 36.9708 11.7566C36.9708 11.7328 37.0293 11.7132 37.1009 11.7132C37.1725 11.7132 37.2311 11.6937 37.2311 11.6699C37.2311 11.6446 37.3757 11.6265 37.5781 11.6265C37.7806 11.6265 37.9252 11.6446 37.9252 11.6699C37.9252 11.6937 37.9838 11.7132 38.0553 11.7132C38.1269 11.7132 38.1855 11.7328 38.1855 11.7566C38.1855 11.7805 38.2245 11.8 38.2722 11.8C38.32 11.8 38.359 11.8195 38.359 11.8434C38.359 11.8672 38.3981 11.8868 38.4458 11.8868C38.4935 11.8868 38.5325 11.9063 38.5325 11.9301C38.5325 11.954 38.5644 11.9735 38.6034 11.9735C38.6423 11.9735 38.7099 12.0147 38.7536 12.065C38.825 12.1474 38.8396 12.1499 38.8996 12.0898C38.9363 12.0531 38.9664 11.9967 38.9664 11.9645C38.9664 11.9323 39.0054 11.8778 39.0531 11.8434C39.1008 11.809 39.1399 11.7504 39.1399 11.7132C39.1399 11.6761 39.1789 11.6175 39.2267 11.5831C39.2744 11.5487 39.3134 11.4858 39.3134 11.4434C39.3134 11.4009 39.3329 11.3662 39.3568 11.3662C39.3807 11.3662 39.4002 11.3362 39.4002 11.2997C39.4002 11.2133 39.1192 10.9324 39.0329 10.9324C38.9963 10.9324 38.9664 10.9128 38.9664 10.889C38.9664 10.8651 38.9273 10.8456 38.8796 10.8456C38.8319 10.8456 38.7928 10.8261 38.7928 10.8022C38.7928 10.7783 38.7538 10.7588 38.7061 10.7588C38.6583 10.7588 38.6193 10.7393 38.6193 10.7154C38.6193 10.6916 38.5412 10.6721 38.4458 10.6721C38.3503 10.6721 38.2722 10.6525 38.2722 10.6287C38.2722 10.6015 37.9975 10.5853 37.5347 10.5853C37.072 10.5853 36.7972 10.6015 36.7972 10.6287ZM41.7428 10.6287C41.7428 10.6525 41.6843 10.6721 41.6127 10.6721C41.5411 10.6721 41.4825 10.6916 41.4825 10.7154C41.4825 10.7393 41.424 10.7588 41.3524 10.7588C41.2808 10.7588 41.2222 10.7783 41.2222 10.8022C41.2222 10.8261 41.1911 10.8456 41.1529 10.8456C41.1147 10.8456 41.0288 10.9042 40.9619 10.9757C40.8951 11.0473 40.8184 11.1059 40.7915 11.1059C40.7236 11.1059 40.3546 11.4815 40.3546 11.5507C40.3546 11.5818 40.3156 11.6355 40.2678 11.6699C40.2201 11.7043 40.1811 11.7671 40.1811 11.8096C40.1811 11.852 40.1615 11.8868 40.1377 11.8868C40.1138 11.8868 40.0943 11.9258 40.0943 11.9735C40.0943 12.0212 40.0748 12.0603 40.0509 12.0603C40.0271 12.0603 40.0075 12.1189 40.0075 12.1904C40.0075 12.262 39.988 12.3206 39.9642 12.3206C39.9403 12.3206 39.9208 12.4182 39.9208 12.5375C39.9208 12.6568 39.9013 12.7544 39.8774 12.7544C39.8517 12.7544 39.834 12.9135 39.834 13.1449C39.834 13.3762 39.8517 13.5353 39.8774 13.5353C39.9013 13.5353 39.9208 13.6329 39.9208 13.7522C39.9208 13.8715 39.9403 13.9691 39.9642 13.9691C39.988 13.9691 40.0075 14.0277 40.0075 14.0993C40.0075 14.1708 40.0271 14.2294 40.0509 14.2294C40.0748 14.2294 40.0943 14.2685 40.0943 14.3162C40.0943 14.3639 40.1138 14.4029 40.1377 14.4029C40.1615 14.4029 40.1811 14.4377 40.1811 14.4801C40.1811 14.5226 40.2201 14.5854 40.2678 14.6199C40.3156 14.6543 40.3546 14.7079 40.3546 14.739C40.3546 14.8127 40.7257 15.1838 40.7994 15.1838C40.8305 15.1838 40.8842 15.2229 40.9186 15.2706C40.953 15.3183 41.0158 15.3574 41.0583 15.3574C41.1007 15.3574 41.1355 15.3769 41.1355 15.4007C41.1355 15.4246 41.1745 15.4441 41.2222 15.4441C41.27 15.4441 41.309 15.4636 41.309 15.4875C41.309 15.5114 41.3481 15.5309 41.3958 15.5309C41.4435 15.5309 41.4825 15.5504 41.4825 15.5743C41.4825 15.5981 41.5606 15.6176 41.6561 15.6176C41.7515 15.6176 41.8296 15.6372 41.8296 15.661C41.8296 15.688 42.0754 15.7044 42.4803 15.7044C42.8852 15.7044 43.1311 15.688 43.1311 15.661C43.1311 15.6372 43.2092 15.6176 43.3046 15.6176C43.4 15.6176 43.4781 15.5981 43.4781 15.5743C43.4781 15.5504 43.5172 15.5309 43.5649 15.5309C43.6126 15.5309 43.6517 15.5114 43.6517 15.4875C43.6517 15.4636 43.6907 15.4441 43.7384 15.4441C43.7861 15.4441 43.8252 15.4246 43.8252 15.4007C43.8252 15.3769 43.8599 15.3574 43.9024 15.3574C43.9448 15.3574 44.0077 15.3183 44.0421 15.2706C44.0765 15.2229 44.1303 15.1838 44.1616 15.1838C44.1929 15.1838 44.2879 15.1144 44.3728 15.0296L44.527 14.8753L44.4364 14.7967C44.3866 14.7535 44.3458 14.6941 44.3458 14.6647C44.3458 14.6353 44.2872 14.5566 44.2156 14.4897C44.144 14.4229 44.0855 14.3458 44.0855 14.3185C44.0855 14.2388 43.856 14.0286 43.8356 14.0896C43.8259 14.1188 43.7848 14.1426 43.7444 14.1426C43.7039 14.1426 43.6427 14.1817 43.6083 14.2294C43.5739 14.2771 43.5153 14.3162 43.4781 14.3162C43.4409 14.3162 43.3824 14.3552 43.348 14.4029C43.3112 14.4539 43.2357 14.4897 43.1649 14.4897C43.0986 14.4897 43.0443 14.5092 43.0443 14.5331C43.0443 14.5569 42.9662 14.5765 42.8708 14.5765C42.7753 14.5765 42.6972 14.596 42.6972 14.6199C42.6972 14.6437 42.6192 14.6632 42.5237 14.6632C42.4283 14.6632 42.3502 14.6437 42.3502 14.6199C42.3502 14.596 42.2721 14.5765 42.1767 14.5765C42.0812 14.5765 42.0031 14.5569 42.0031 14.5331C42.0031 14.5092 41.9641 14.4897 41.9164 14.4897C41.8686 14.4897 41.8296 14.4702 41.8296 14.4463C41.8296 14.4225 41.7997 14.4029 41.7631 14.4029C41.6819 14.4029 41.3958 14.1243 41.3958 14.0452C41.3958 14.0139 41.3567 13.9601 41.309 13.9257C41.2581 13.889 41.2222 13.8134 41.2222 13.7426C41.2222 13.6763 41.2027 13.6221 41.1789 13.6221C41.1524 13.6221 41.1355 13.4196 41.1355 13.1015C41.1355 12.7833 41.1524 12.5809 41.1789 12.5809C41.2027 12.5809 41.2222 12.5266 41.2222 12.4603C41.2222 12.3895 41.2581 12.314 41.309 12.2772C41.3567 12.2428 41.3958 12.1888 41.3958 12.1572C41.3958 12.078 41.5938 11.8868 41.6758 11.8868C41.7127 11.8868 41.7428 11.8672 41.7428 11.8434C41.7428 11.8195 41.7819 11.8 41.8296 11.8C41.8773 11.8 41.9164 11.7805 41.9164 11.7566C41.9164 11.7328 41.9749 11.7132 42.0465 11.7132C42.1181 11.7132 42.1767 11.6937 42.1767 11.6699C42.1767 11.6446 42.3212 11.6265 42.5237 11.6265C42.7262 11.6265 42.8708 11.6446 42.8708 11.6699C42.8708 11.6937 42.9293 11.7132 43.0009 11.7132C43.0725 11.7132 43.1311 11.7328 43.1311 11.7566C43.1311 11.7805 43.1701 11.8 43.2178 11.8C43.2656 11.8 43.3046 11.8195 43.3046 11.8434C43.3046 11.8672 43.3436 11.8868 43.3914 11.8868C43.4391 11.8868 43.4781 11.9063 43.4781 11.9301C43.4781 11.954 43.51 11.9735 43.549 11.9735C43.5879 11.9735 43.6555 12.0147 43.6992 12.065C43.7706 12.1474 43.7852 12.1499 43.8452 12.0898C43.8819 12.0531 43.9119 11.9967 43.9119 11.9645C43.9119 11.9323 43.951 11.8778 43.9987 11.8434C44.0464 11.809 44.0855 11.7461 44.0855 11.7036C44.0855 11.6612 44.105 11.6265 44.1289 11.6265C44.1527 11.6265 44.1722 11.5917 44.1722 11.5493C44.1722 11.5068 44.2113 11.444 44.259 11.4096C44.3067 11.3752 44.3458 11.3211 44.3458 11.2896C44.3458 11.2151 44.1498 11.0191 44.0753 11.0191C44.0437 11.0191 43.9897 10.9801 43.9553 10.9324C43.9209 10.8846 43.8581 10.8456 43.8156 10.8456C43.7732 10.8456 43.7384 10.8261 43.7384 10.8022C43.7384 10.7783 43.6799 10.7588 43.6083 10.7588C43.5367 10.7588 43.4781 10.7393 43.4781 10.7154C43.4781 10.6916 43.4196 10.6721 43.348 10.6721C43.2764 10.6721 43.2178 10.6525 43.2178 10.6287C43.2178 10.6015 42.9431 10.5853 42.4803 10.5853C42.0176 10.5853 41.7428 10.6015 41.7428 10.6287ZM45.2134 13.1015V15.6176H46.8186H48.4237V15.1404V14.6632H47.4445C46.6537 14.6632 46.4534 14.6513 46.4034 14.6012C46.3587 14.5566 46.3414 14.4285 46.3414 14.1426C46.3414 13.8568 46.3587 13.7287 46.4034 13.6841C46.4521 13.6353 46.619 13.6221 47.1842 13.6221H47.9031V13.1015V12.5809H47.1222H46.3414V12.1657C46.3414 11.8636 46.3582 11.7335 46.4034 11.6885C46.4532 11.6386 46.6479 11.6265 47.4011 11.6265H48.3369V11.1059V10.5853H46.7752H45.2134V13.1015ZM32.459 11.9735C32.459 12.069 32.4785 12.1471 32.5024 12.1471C32.5263 12.1471 32.5458 12.2251 32.5458 12.3206C32.5458 12.416 32.5653 12.4941 32.5892 12.4941C32.613 12.4941 32.6325 12.5527 32.6325 12.6243C32.6325 12.6958 32.6521 12.7544 32.6759 12.7544C32.6998 12.7544 32.7193 12.8325 32.7193 12.9279C32.7193 13.0234 32.7388 13.1015 32.7627 13.1015C32.7865 13.1015 32.8061 13.16 32.8061 13.2316C32.8061 13.3032 32.8256 13.3618 32.8494 13.3618C32.8733 13.3618 32.8928 13.4203 32.8928 13.4919V13.6221H32.4156H31.9384V13.4485C31.9384 13.3531 31.9579 13.275 31.9818 13.275C32.0057 13.275 32.0252 13.2164 32.0252 13.1449C32.0252 13.0733 32.0447 13.0147 32.0686 13.0147C32.0924 13.0147 32.1119 12.9366 32.1119 12.8412C32.1119 12.7457 32.1315 12.6676 32.1553 12.6676C32.1792 12.6676 32.1987 12.6091 32.1987 12.5375C32.1987 12.4659 32.2182 12.4074 32.2421 12.4074C32.266 12.4074 32.2855 12.3097 32.2855 12.1904C32.2855 12.0711 32.305 11.9735 32.3289 11.9735C32.3527 11.9735 32.3722 11.9345 32.3722 11.8868C32.3722 11.839 32.3918 11.8 32.4156 11.8C32.4395 11.8 32.459 11.8781 32.459 11.9735ZM49.2914 14.3162V15.6176H49.8987H50.5061V14.8368V14.0559H51.9811C52.9355 14.0559 53.4561 14.0406 53.4561 14.0125C53.4561 13.9886 53.5103 13.9691 53.5766 13.9691C53.6474 13.9691 53.723 13.9333 53.7597 13.8824C53.7941 13.8346 53.8482 13.7956 53.8797 13.7956C53.9542 13.7956 54.1502 13.5996 54.1502 13.5251C54.1502 13.4936 54.1892 13.4395 54.2369 13.4051C54.2847 13.3707 54.3237 13.3079 54.3237 13.2654C54.3237 13.223 54.3432 13.1882 54.3671 13.1882C54.391 13.1882 54.4105 13.1492 54.4105 13.1015C54.4105 13.0157 54.3815 13.0147 51.8509 13.0147H49.2914V14.3162Z" fill="#00A9E4"/>
<path d="M5.56201 15.7913V11.7133V7.63538H7.08039C8.06374 7.63538 8.59878 7.65065 8.59878 7.67876C8.59878 7.70262 8.65305 7.72214 8.71934 7.72214C8.79014 7.72214 8.86571 7.75797 8.90245 7.80891C8.93685 7.85663 8.99061 7.89567 9.02193 7.89567C9.10101 7.89567 9.37966 8.18178 9.37966 8.26299C9.37966 8.29956 9.39918 8.32949 9.42304 8.32949C9.4469 8.32949 9.46642 8.36854 9.46642 8.41626C9.46642 8.46398 9.48595 8.50302 9.50981 8.50302C9.53367 8.50302 9.55319 8.56159 9.55319 8.63317C9.55319 8.70475 9.57271 8.76332 9.59657 8.76332C9.62043 8.76332 9.63995 8.82188 9.63995 8.89346C9.63995 8.96504 9.65947 9.02361 9.68333 9.02361C9.7072 9.02361 9.72672 9.1017 9.72672 9.19714C9.72672 9.29258 9.74624 9.37067 9.7701 9.37067C9.79396 9.37067 9.81348 9.42924 9.81348 9.50082C9.81348 9.5724 9.833 9.63096 9.85686 9.63096C9.88072 9.63096 9.90025 9.70905 9.90025 9.80449C9.90025 9.89993 9.91977 9.97802 9.94363 9.97802C9.96749 9.97802 9.98701 10.0366 9.98701 10.1082C9.98701 10.1798 10.0065 10.2383 10.0304 10.2383C10.0543 10.2383 10.0738 10.3164 10.0738 10.4118C10.0738 10.5073 10.0933 10.5854 10.1172 10.5854C10.141 10.5854 10.1605 10.6439 10.1605 10.7155C10.1605 10.7871 10.1801 10.8457 10.2039 10.8457C10.2278 10.8457 10.2473 10.9042 10.2473 10.9758C10.2473 11.0474 10.2668 11.106 10.2907 11.106C10.3145 11.106 10.3341 11.1841 10.3341 11.2795C10.3341 11.3749 10.3536 11.453 10.3775 11.453C10.4013 11.453 10.4208 11.5116 10.4208 11.5832C10.4208 11.6548 10.4404 11.7133 10.4642 11.7133C10.4881 11.7133 10.5076 11.7914 10.5076 11.8868C10.5076 11.9823 10.5271 12.0604 10.551 12.0604C10.5748 12.0604 10.5944 12.1189 10.5944 12.1905C10.5944 12.2621 10.6139 12.3207 10.6377 12.3207C10.6616 12.3207 10.6811 12.3597 10.6811 12.4074C10.6811 12.4749 10.7101 12.4942 10.8113 12.4942C10.9342 12.4942 10.9414 12.4846 10.9414 12.3207C10.9414 12.2252 10.9609 12.1471 10.9848 12.1471C11.0087 12.1471 11.0282 12.0886 11.0282 12.017C11.0282 11.9454 11.0477 11.8868 11.0716 11.8868C11.0954 11.8868 11.115 11.8088 11.115 11.7133C11.115 11.6179 11.1345 11.5398 11.1583 11.5398C11.1822 11.5398 11.2017 11.4812 11.2017 11.4096C11.2017 11.3381 11.2212 11.2795 11.2451 11.2795C11.269 11.2795 11.2885 11.2209 11.2885 11.1493C11.2885 11.0778 11.308 11.0192 11.3319 11.0192C11.3557 11.0192 11.3752 10.9411 11.3752 10.8457C11.3752 10.7502 11.3948 10.6721 11.4186 10.6721C11.4425 10.6721 11.462 10.6136 11.462 10.542C11.462 10.4704 11.4815 10.4118 11.5054 10.4118C11.5293 10.4118 11.5488 10.3338 11.5488 10.2383C11.5488 10.1429 11.5683 10.0648 11.5922 10.0648C11.616 10.0648 11.6355 10.0062 11.6355 9.93464C11.6355 9.86306 11.6551 9.80449 11.6789 9.80449C11.7028 9.80449 11.7223 9.72641 11.7223 9.63096C11.7223 9.53552 11.7418 9.45743 11.7657 9.45743C11.7895 9.45743 11.8091 9.39887 11.8091 9.32729C11.8091 9.25571 11.8286 9.19714 11.8525 9.19714C11.8763 9.19714 11.8958 9.11905 11.8958 9.02361C11.8958 8.92817 11.9154 8.85008 11.9392 8.85008C11.9631 8.85008 11.9826 8.79152 11.9826 8.71993C11.9826 8.64835 12.0021 8.58979 12.026 8.58979C12.0498 8.58979 12.0694 8.55074 12.0694 8.50302C12.0694 8.4553 12.0889 8.41626 12.1127 8.41626C12.1366 8.41626 12.1561 8.38151 12.1561 8.33908C12.1561 8.29661 12.1952 8.23375 12.2429 8.19935C12.2906 8.16494 12.3297 8.10208 12.3297 8.05961C12.3297 8.01454 12.3618 7.98243 12.4068 7.98243C12.4493 7.98243 12.5122 7.94339 12.5466 7.89567C12.581 7.84795 12.6438 7.80891 12.6863 7.80891C12.7287 7.80891 12.7635 7.78938 12.7635 7.76552C12.7635 7.74166 12.8025 7.72214 12.8502 7.72214C12.898 7.72214 12.937 7.70262 12.937 7.67876C12.937 7.65065 13.4865 7.63538 14.4988 7.63538H16.0605V11.7133V15.7913H14.7591H13.4576V13.3618V10.9324H13.3275C13.2262 10.9324 13.1973 10.9517 13.1973 11.0192C13.1973 11.0669 13.1778 11.106 13.1539 11.106C13.1301 11.106 13.1105 11.1841 13.1105 11.2795C13.1105 11.3749 13.091 11.453 13.0672 11.453C13.0433 11.453 13.0238 11.5116 13.0238 11.5832C13.0238 11.6548 13.0043 11.7133 12.9804 11.7133C12.9565 11.7133 12.937 11.7719 12.937 11.8435C12.937 11.915 12.9175 11.9736 12.8936 11.9736C12.8698 11.9736 12.8502 12.0322 12.8502 12.1038C12.8502 12.1753 12.8307 12.2339 12.8069 12.2339C12.783 12.2339 12.7635 12.312 12.7635 12.4074C12.7635 12.5029 12.744 12.581 12.7201 12.581C12.6962 12.581 12.6767 12.6395 12.6767 12.7111C12.6767 12.7827 12.6572 12.8413 12.6333 12.8413C12.6095 12.8413 12.59 12.8998 12.59 12.9714C12.59 13.043 12.5704 13.1016 12.5466 13.1016C12.5227 13.1016 12.5032 13.1601 12.5032 13.2317C12.5032 13.3033 12.4837 13.3618 12.4598 13.3618C12.4359 13.3618 12.4164 13.4399 12.4164 13.5354C12.4164 13.6308 12.3969 13.7089 12.373 13.7089C12.3492 13.7089 12.3297 13.7675 12.3297 13.8391C12.3297 13.9106 12.3101 13.9692 12.2863 13.9692C12.2624 13.9692 12.2429 14.0278 12.2429 14.0993C12.2429 14.1709 12.2234 14.2295 12.1995 14.2295C12.1757 14.2295 12.1561 14.2881 12.1561 14.3596C12.1561 14.4312 12.1366 14.4898 12.1127 14.4898C12.0889 14.4898 12.0694 14.5679 12.0694 14.6633C12.0694 14.7588 12.0498 14.8368 12.026 14.8368C12.0021 14.8368 11.9826 14.8954 11.9826 14.967C11.9826 15.0386 11.9631 15.0971 11.9392 15.0971C11.9154 15.0971 11.8958 15.1557 11.8958 15.2273C11.8958 15.2989 11.8763 15.3574 11.8525 15.3574C11.8286 15.3574 11.8091 15.416 11.8091 15.4876C11.8091 15.5592 11.7895 15.6177 11.7657 15.6177C11.7418 15.6177 11.7223 15.6568 11.7223 15.7045C11.7223 15.7886 11.6934 15.7913 10.7679 15.7913H9.81348V15.6611C9.81348 15.5895 9.79396 15.531 9.7701 15.531C9.74624 15.531 9.72672 15.4724 9.72672 15.4008C9.72672 15.3292 9.7072 15.2707 9.68333 15.2707C9.65947 15.2707 9.63995 15.2121 9.63995 15.1405C9.63995 15.0689 9.62043 15.0104 9.59657 15.0104C9.57271 15.0104 9.55319 14.9323 9.55319 14.8368C9.55319 14.7414 9.53367 14.6633 9.50981 14.6633C9.48595 14.6633 9.46642 14.6048 9.46642 14.5332C9.46642 14.4616 9.4469 14.403 9.42304 14.403C9.39918 14.403 9.37966 14.3445 9.37966 14.2729C9.37966 14.2013 9.36014 14.1427 9.33628 14.1427C9.31242 14.1427 9.29289 14.0842 9.29289 14.0126C9.29289 13.941 9.27337 13.8824 9.24951 13.8824C9.22565 13.8824 9.20613 13.8043 9.20613 13.7089C9.20613 13.6135 9.18661 13.5354 9.16275 13.5354C9.13889 13.5354 9.11936 13.4768 9.11936 13.4052C9.11936 13.3336 9.09984 13.2751 9.07598 13.2751C9.05212 13.2751 9.0326 13.2165 9.0326 13.1449C9.0326 13.0734 9.01308 13.0148 8.98922 13.0148C8.96536 13.0148 8.94584 12.9562 8.94584 12.8846C8.94584 12.8131 8.92631 12.7545 8.90245 12.7545C8.87859 12.7545 8.85907 12.6764 8.85907 12.581C8.85907 12.4855 8.83955 12.4074 8.81569 12.4074C8.79183 12.4074 8.77231 12.3489 8.77231 12.2773C8.77231 12.2057 8.75278 12.1471 8.72892 12.1471C8.70506 12.1471 8.68554 12.0886 8.68554 12.017C8.68554 11.9454 8.66602 11.8868 8.64216 11.8868C8.6183 11.8868 8.59878 11.8283 8.59878 11.7567C8.59878 11.6851 8.57925 11.6266 8.55539 11.6266C8.53153 11.6266 8.51201 11.5485 8.51201 11.453C8.51201 11.3576 8.49249 11.2795 8.46863 11.2795C8.44477 11.2795 8.42525 11.2293 8.42525 11.168C8.42525 11.0424 8.33553 10.9324 8.23311 10.9324C8.17198 10.9324 8.16495 11.1822 8.16495 13.3618V15.7913H6.86348H5.56201Z" fill="#29B352"/>
<path d="M17.1885 15.7913V11.7133V7.63538H18.49H19.7914V11.7133V15.7913H18.49H17.1885Z" fill="#29B352"/>
<path d="M21.0061 15.7913V13.5788V11.3663H24.9973C28.9595 11.3663 28.9885 11.3669 28.9885 11.453C28.9885 11.5007 28.969 11.5398 28.9451 11.5398C28.9212 11.5398 28.9017 11.5788 28.9017 11.6266C28.9017 11.6743 28.8822 11.7133 28.8583 11.7133C28.8345 11.7133 28.815 11.7481 28.815 11.7905C28.815 11.833 28.7759 11.8958 28.7282 11.9302C28.6805 11.9646 28.6414 12.0181 28.6414 12.0491C28.6414 12.1224 28.0961 12.6677 28.0227 12.6677C27.9918 12.6677 27.9383 12.7068 27.9039 12.7545C27.8695 12.8022 27.8067 12.8413 27.7642 12.8413C27.7218 12.8413 27.687 12.8608 27.687 12.8846C27.687 12.9085 27.648 12.928 27.6002 12.928C27.5525 12.928 27.5135 12.9475 27.5135 12.9714C27.5135 12.9953 27.4744 13.0148 27.4267 13.0148C27.379 13.0148 27.34 13.0343 27.34 13.0582C27.34 13.082 27.3595 13.1016 27.3833 13.1016C27.4072 13.1016 27.4267 13.1363 27.4267 13.1787C27.4267 13.2212 27.4658 13.2841 27.5135 13.3185C27.5612 13.3529 27.6002 13.4114 27.6002 13.4486C27.6002 13.4858 27.6393 13.5444 27.687 13.5788C27.7347 13.6132 27.7738 13.6717 27.7738 13.7089C27.7738 13.7461 27.8128 13.8046 27.8605 13.8391C27.9083 13.8735 27.9473 13.932 27.9473 13.9692C27.9473 14.0064 27.9863 14.0649 28.0341 14.0993C28.0818 14.1337 28.1208 14.1923 28.1208 14.2295C28.1208 14.2667 28.1599 14.3252 28.2076 14.3596C28.2553 14.394 28.2944 14.4526 28.2944 14.4898C28.2944 14.527 28.3334 14.5855 28.3811 14.6199C28.4288 14.6543 28.4679 14.7129 28.4679 14.7501C28.4679 14.7873 28.5069 14.8458 28.5547 14.8802C28.6024 14.9146 28.6414 14.9732 28.6414 15.0104C28.6414 15.0476 28.6805 15.1061 28.7282 15.1405C28.7759 15.1749 28.815 15.2335 28.815 15.2707C28.815 15.3078 28.854 15.3664 28.9017 15.4008C28.9494 15.4352 28.9885 15.4938 28.9885 15.531C28.9885 15.5681 29.0275 15.6267 29.0752 15.6611C29.123 15.6955 29.162 15.7389 29.162 15.7575C29.162 15.776 28.5066 15.7913 27.7056 15.7913C26.1905 15.7913 26.1252 15.7837 26.1252 15.6087C26.1252 15.5765 26.0862 15.522 26.0385 15.4876C25.9908 15.4532 25.9517 15.3903 25.9517 15.3478C25.9517 15.3054 25.9322 15.2707 25.9083 15.2707C25.8845 15.2707 25.865 15.2316 25.865 15.1839C25.865 15.1362 25.8454 15.0971 25.8216 15.0971C25.7977 15.0971 25.7782 15.0581 25.7782 15.0104C25.7782 14.9627 25.7587 14.9236 25.7348 14.9236C25.7109 14.9236 25.6914 14.8846 25.6914 14.8368C25.6914 14.7891 25.6719 14.7501 25.648 14.7501C25.6242 14.7501 25.6047 14.711 25.6047 14.6633C25.6047 14.6156 25.5851 14.5766 25.5613 14.5766C25.5374 14.5766 25.5179 14.5375 25.5179 14.4898C25.5179 14.4421 25.4984 14.403 25.4745 14.403C25.4507 14.403 25.4311 14.364 25.4311 14.3163C25.4311 14.2685 25.4116 14.2295 25.3877 14.2295C25.3639 14.2295 25.3444 14.1904 25.3444 14.1427C25.3444 14.095 25.3248 14.056 25.301 14.056C25.2771 14.056 25.2576 14.0169 25.2576 13.9692C25.2576 13.9215 25.2381 13.8824 25.2142 13.8824C25.1904 13.8824 25.1708 13.8477 25.1708 13.8053C25.1708 13.7628 25.1318 13.6999 25.0841 13.6655C25.0363 13.6311 24.9973 13.5683 24.9973 13.5258C24.9973 13.4834 24.9778 13.4486 24.9539 13.4486C24.9301 13.4486 24.9105 13.4179 24.9105 13.3805C24.9105 13.214 24.8093 13.1883 24.1544 13.1883H23.5223V14.4898V15.7913H22.2642H21.0061Z" fill="#29B352"/>
<path d="M48.8144 10.672C48.7905 10.672 48.771 10.6524 48.771 10.6286C48.771 10.6003 49.494 10.5852 50.8533 10.5852C52.2126 10.5852 52.9357 10.6003 52.9357 10.6286C52.9357 10.6524 53.0138 10.672 53.1092 10.672C53.2047 10.672 53.2828 10.6915 53.2828 10.7154C53.2828 10.7392 53.3218 10.7587 53.3695 10.7587C53.4172 10.7587 53.4563 10.7783 53.4563 10.8021C53.4563 10.826 53.4859 10.8455 53.5222 10.8455C53.608 10.8455 54.1504 11.388 54.1504 11.4737C54.1504 11.51 54.1699 11.5396 54.1938 11.5396C54.2177 11.5396 54.2372 11.5787 54.2372 11.6264C54.2372 11.6741 54.2567 11.7131 54.2806 11.7131C54.3044 11.7131 54.3239 11.7522 54.3239 11.7999C54.3239 11.8476 54.3435 11.8867 54.3673 11.8867C54.3933 11.8867 54.4107 12.0602 54.4107 12.3205V12.7543H52.632C51.4751 12.7543 50.8533 12.7391 50.8533 12.7109C50.8533 12.6871 50.7948 12.6676 50.7232 12.6676C50.6516 12.6676 50.5931 12.648 50.5931 12.6242C50.5931 12.6003 50.5345 12.5808 50.4629 12.5808C50.3913 12.5808 50.3328 12.5613 50.3328 12.5374C50.3328 12.5136 50.2937 12.494 50.246 12.494C50.1983 12.494 50.1592 12.4745 50.1592 12.4506C50.1592 12.4268 50.128 12.4073 50.0899 12.4073C50.0517 12.4073 49.9658 12.3487 49.8989 12.2771C49.8321 12.2055 49.7553 12.147 49.7282 12.147C49.6644 12.147 49.3783 11.8609 49.3783 11.7971C49.3783 11.7701 49.3198 11.6932 49.2482 11.6264C49.1766 11.5595 49.1181 11.4736 49.1181 11.4355C49.1181 11.3973 49.0985 11.3661 49.0747 11.3661C49.0508 11.3661 49.0313 11.327 49.0313 11.2793C49.0313 11.2316 49.0118 11.1926 48.9879 11.1926C48.964 11.1926 48.9445 11.134 48.9445 11.0624C48.9445 10.9908 48.925 10.9323 48.9011 10.9323C48.8773 10.9323 48.8578 10.8737 48.8578 10.8021C48.8578 10.7305 48.8382 10.672 48.8144 10.672Z" fill="#29B352"/>
</svg>
