<svg width="49" height="21" viewBox="0 0 49 21" fill="none" xmlns="http://www.w3.org/2000/svg">
<path d="M19.6962 11.2079L17.2552 17.7907L16.9949 16.4531C16.387 14.8132 15.071 13.0926 13.5381 12.3952L15.7714 20.8479L18.4111 20.8466L22.3367 11.2079H19.6962Z" fill="#2A59A9"/>
<path d="M21.7883 20.8574L23.3489 11.1987H25.8426L24.2814 20.8574H21.7883Z" fill="#2A59A9"/>
<path d="M33.3287 11.4368C32.8361 11.2419 32.0584 11.0302 31.0941 11.0302C28.627 11.0302 26.8936 12.3416 26.8785 14.2172C26.8626 15.6064 28.1178 16.3814 29.0614 16.8429C30.0352 17.3152 30.3604 17.6182 30.3575 18.0409C30.3481 18.6881 29.5782 18.9829 28.863 18.9829C27.8661 18.9829 27.3352 18.8375 26.5177 18.4781L26.1938 18.3242L25.8447 20.4857C26.4285 20.7547 27.5053 20.988 28.6249 21C31.2432 21 32.9463 19.7037 32.9666 17.7016C32.9771 16.5996 32.3111 15.7656 30.8706 15.0769C30.0013 14.6294 29.4637 14.3326 29.4716 13.8787C29.4727 13.4779 29.9227 13.0483 30.9008 13.0483C31.7173 13.0348 32.3046 13.2222 32.7669 13.4197L32.9894 13.5305L33.3287 11.4368" fill="#2A59A9"/>
<path d="M39.7247 11.2086H37.7981C37.2007 11.2086 36.7533 11.3788 36.4894 12.0102L32.7874 20.8604H35.4066C35.4066 20.8604 35.8351 19.6693 35.9317 19.4081C36.2175 19.4081 38.7617 19.4141 39.1245 19.4141C39.2017 19.7507 39.4282 20.8604 39.4282 20.8604H41.7441L39.7247 11.2086ZM36.6493 17.4325C36.8563 16.8782 37.6428 14.7327 37.6428 14.7327C37.6277 14.759 37.8473 14.1741 37.9744 13.8126L38.1407 14.6451C38.1407 14.6451 38.6197 16.95 38.7196 17.4325C38.3314 17.4325 37.1357 17.4325 36.6493 17.4325" fill="#2A59A9"/>
<path d="M14.991 11.2031H10.9691L10.9456 11.3693C14.0728 12.1691 16.1362 14.1331 16.9951 16.4558L16.1209 12.0167C15.9707 11.4061 15.5331 11.2246 14.991 11.2031Z" fill="#F19C23"/>
<path d="M3.42473 8.86902H1.83439L0 0.599381L1.75761 0.305676L3.01271 6.77726L6.20992 0.391269H7.89817L3.42473 8.86902Z" fill="#2A59A9"/>
<path d="M11.6952 6.16567H7.90275C7.79896 7.31555 8.3334 7.81727 9.23884 7.81727C9.99743 7.81727 10.6646 7.53569 11.3826 7.08312L11.377 8.2329C10.6729 8.67345 9.85887 8.95496 8.90459 8.95496C7.25319 8.95496 6.16266 8.01277 6.49029 5.88408C6.78579 3.96348 8.11468 2.8015 9.65606 2.8015C11.4299 2.8015 12.0198 4.13498 11.7619 5.8109C11.7432 5.93313 11.7083 6.08008 11.6952 6.16567V6.16567ZM9.46317 3.81685C8.87586 3.81685 8.3273 4.28153 8.06842 5.24822H10.4171C10.4605 4.33058 10.1727 3.81685 9.46317 3.81685Z" fill="#2A59A9"/>
<path d="M14.1668 5.44393L13.6453 8.83252H12.1772L13.0867 2.92372H14.3345L14.3354 4.11046C14.8324 3.42533 15.508 2.85046 16.433 2.80151L16.4414 4.2572C15.5146 4.31847 14.6807 4.80778 14.1668 5.44393Z" fill="#2A59A9"/>
<path d="M16.4224 8.83252L17.3318 2.92372H18.7998L17.8904 8.83252H16.4224ZM18.2306 1.9328C17.7414 1.9328 17.4027 1.59035 17.4779 1.10104C17.5552 0.599426 18.0012 0.244654 18.4904 0.244654C18.9677 0.244654 19.3045 0.599426 19.2273 1.10104C19.152 1.59035 18.7079 1.9328 18.2306 1.9328" fill="#2A59A9"/>
<path d="M22.8651 1.30895C22.3632 1.30895 22.0604 1.52908 21.9793 2.05524L21.8457 2.92372H22.9712L22.9702 4.12255H21.6613L20.9363 8.83252H19.4806L20.2055 4.12255H19.3491L19.5336 2.92372H20.39L20.5463 1.90837C20.7478 0.599426 21.6549 0.110114 22.866 0.110114C23.1229 0.110114 23.3149 0.134638 23.4581 0.15906L23.4692 1.35792C23.326 1.3335 23.1095 1.30895 22.8651 1.30895" fill="#2A59A9"/>
<path d="M22.8811 8.83252L23.7905 2.92372H25.2585L24.3491 8.83252H22.8811ZM24.6894 1.9328C24.2 1.9328 23.8613 1.59035 23.9367 1.10104C24.0139 0.599426 24.4598 0.244654 24.9491 0.244654C25.4263 0.244654 25.7632 0.599426 25.6861 1.10104C25.6108 1.59035 25.1665 1.9328 24.6894 1.9328" fill="#2A59A9"/>
<path d="M30.9501 6.16567H27.1576C27.0541 7.31555 27.5884 7.81727 28.4938 7.81727C29.2524 7.81727 29.9194 7.53569 30.6377 7.08312L30.6318 8.2329C29.9279 8.67345 29.1137 8.95496 28.1596 8.95496C26.508 8.95496 25.4177 8.01277 25.7451 5.88408C26.0408 3.96348 27.3696 2.8015 28.911 2.8015C30.6849 2.8015 31.2751 4.13498 31.017 5.8109C30.998 5.93313 30.9632 6.08008 30.9501 6.16567V6.16567ZM28.718 3.81685C28.1307 3.81685 27.582 4.28153 27.3235 5.24822H29.6721C29.7154 4.33058 29.4276 3.81685 28.718 3.81685Z" fill="#2A59A9"/>
<path d="M35.2985 8.83251L35.3021 8.01277C34.8091 8.51449 34.1664 8.95496 33.3468 8.95496C32.1109 8.95496 31.2616 8.0373 31.5683 6.04315C31.9071 3.84137 33.2689 2.86255 34.6392 2.86255C35.2019 2.86255 35.6396 2.96057 35.9753 3.08268L36.4141 0.232244L37.9178 -8.30999e-06L36.5586 8.83251H35.2985ZM35.789 4.29394C35.4484 4.12255 35.1801 4.03698 34.6786 4.03698C33.9078 4.03698 33.2492 4.66081 33.0498 5.95766C32.8727 7.10754 33.2792 7.6458 33.9275 7.6458C34.4659 7.6458 34.9305 7.32796 35.3972 6.83847L35.789 4.29394" fill="#2A59A9"/>
<path d="M41.0558 8.88818C40.3608 8.88818 39.7942 8.77689 39.2668 8.59169L40.2325 2.3182L41.3713 2.14212L40.9536 4.85714C41.2865 4.56062 41.749 4.26412 42.3143 4.26412C43.2595 4.26412 43.8924 4.96854 43.6615 6.46958C43.4076 8.1189 42.3902 8.88818 41.0558 8.88818V8.88818ZM41.8759 5.24623C41.5051 5.24623 41.1332 5.4966 40.8037 5.83033L40.4915 7.85954C40.7104 7.94282 40.8621 7.97996 41.177 7.97996C41.8813 7.97996 42.3733 7.55371 42.5301 6.53437C42.6629 5.67268 42.3764 5.24623 41.8759 5.24623Z" fill="#2A59A9"/>
<path d="M46.281 9.07343C45.7129 10.1761 45.1506 10.5189 44.2888 10.5189C44.0941 10.5189 43.9859 10.5004 43.8883 10.4727L43.8811 9.55534C44.0238 9.59237 44.1768 9.6202 44.39 9.6202C44.7145 9.6202 44.9966 9.47195 45.1857 9.1477L45.3331 8.8511L44.3903 4.44014L45.5717 4.292L46.1188 7.4796L47.6003 4.35686H48.703L46.281 9.07343" fill="#2A59A9"/>
</svg>
